<?xml version="1.0" encoding="utf-8"?>
<!--Designed by Vexels.com - 2017 All Rights Reserved - https://vexels.com/terms-and-conditions/-->

<svg width="456px" height="1100px" viewBox="0 0 456 1100" version="1.1" xmlns="http://www.w3.org/2000/svg" xmlns:xlink="http://www.w3.org/1999/xlink">
    <g id="Page-1" stroke="none" stroke-width="1" fill="none" fill-rule="evenodd">
        <g id="beard-man-illustration-by-Vexels" transform="translate(228.000000, 550.000000) scale(-1, 1) translate(-228.000000, -550.000000) ">
            <g id="Group" transform="translate(0.000000, 12.000000)">
                <path d="M410.062,556.396 L419.762,588.375 C419.762,588.375 398.123,601.357 420.96,601.439 C451.979,601.595 470.886,570.584 437.151,536.602 L410.062,556.396 Z" id="Path" fill="#FFC398"></path>
                <path d="M321.755,323.678 C324.356,323.194 325.916,322.718 328.886,321.676 C351.922,313.338 356.533,288.901 356.533,288.901 C365.986,333.296 370.237,376.969 370.237,376.969 L437.191,536.53 L410.061,556.397 C410.061,556.397 333.612,444.047 324.513,433.067 L322.034,429.062 L321.755,323.678 Z" id="Path" fill="#FFC398"></path>
                <path d="M52.29,1012.863 C56.098,1017.032 62.663,1022.079 73.126,1023.203 C86.19,1024.565 97.769,1021.521 103.579,1019.674 C113.673,1040.115 133.229,1072.324 125.851,1082.426 C118.441,1092.684 57.174,1061.032 45.275,1038.827 C45.274,1038.828 48.359,1026.97 52.29,1012.863" id="Path" fill="#303642"></path>
                <path d="M333.769,1041.314 C347.793,1054.215 365.51,1078.422 356.976,1085.472 C344.552,1095.647 290.539,1072.408 275.472,1063.594 C268.776,1059.745 259.848,1052.532 259.848,1052.532 L265.575,1026.33 C268.537,1028.652 276.432,1032.903 292.098,1032.903 C307.123,1032.903 316.339,1028.25 320.671,1025.369 L333.769,1041.314 Z" id="Path" fill="#303642"></path>
                <path d="M91.195,863.405 C91.031,861.567 91.154,859.647 91.794,857.718 L110.431,645.753 L112.154,569.863 C112.154,569.863 150.173,585.167 198.942,581.565 C226.383,579.481 256.557,570.183 285.287,553.114 C309.609,538.605 322.313,513.61 322.148,506.232 L322.148,508.078 L323.477,562.329 L337.419,845.86 C337.419,846.016 337.419,846.18 337.419,846.262 L323.592,1023.203 C323.592,1023.203 322.55,1024.163 320.588,1025.369 C316.338,1028.25 307.081,1032.903 292.097,1032.903 C276.39,1032.903 268.66,1028.652 265.493,1026.33 C264.295,1025.452 263.81,1024.804 263.81,1024.804 L260.848,851.63 C259.724,848.988 259.445,846.263 260.085,843.539 L236.205,650.646 C236.205,650.646 234.679,642.071 224.462,643.753 C216.568,645.116 214.081,648.48 213.08,653.527 L171.656,862.045 L107.5,1018.241 C107.5,1018.241 105.941,1018.799 103.536,1019.677 C97.767,1021.524 86.188,1024.486 73.124,1023.206 C62.546,1022.082 56.096,1017.035 52.288,1012.866 C49.4,1009.666 48.161,1006.941 48.161,1006.941 L91.195,863.405 Z" id="Path" fill="#444148"></path>
                <path d="M66.79,308.611 C76.966,281.449 98.244,259.809 101.576,259.891 L101.609,259.891 C102.971,258.849 104.333,257.725 105.942,256.839 L185.755,202.588 L242.172,190.886 C271.148,190.968 284.811,189.688 304.719,193.774 C308.207,194.578 311.169,195.538 313.458,196.736 C333.251,201.947 347.399,245.702 356.532,288.899 C356.532,288.899 351.921,313.337 328.885,321.674 C326.481,322.552 324.077,323.192 321.869,323.594 L322.23,508.076 L322.148,506.23 C322.271,513.607 309.65,538.603 285.287,553.112 C256.639,570.181 226.465,579.478 198.982,581.563 C150.213,585.166 112.153,569.861 112.153,569.861 L97.645,355.328 C82.34,350.363 67.356,341.229 59.823,331.21 C59.421,330.652 59.257,330.168 58.854,329.528 C62.301,320.395 65.108,313.1 66.79,308.611" id="Path" fill="#528BCE"></path>
                <path d="M179.707,213.486 L186.198,171.659 L186.322,171.659 C186.281,167.088 189.727,162.197 196.817,158.028 C209.922,150.421 230.191,148.738 242.057,154.024 C247.342,156.51 249.91,159.957 250.066,163.724 L250.23,163.724 L256.442,203.868 C257.599,209.801 253.471,216.531 243.895,221.979 C228.147,231.121 203.792,233.361 189.562,226.87 C182.308,223.588 179.189,218.697 179.829,213.486 L179.707,213.486 Z" id="Path" fill="#EBA87C"></path>
                <path d="M197.26,10.334 C215.691,0.24 239.768,-2.968 256.238,4.491 C262.688,7.371 268.021,11.22 272.19,16.185 C277.598,22.676 293.781,42.633 293.781,81.982 C293.781,130.144 267.177,165.644 267.177,165.644 C255.721,182.877 215.011,190.566 183.753,168.286 C177.426,162.279 159.955,142.404 159.955,102.497 C159.955,54.417 184.959,21.24 184.959,21.24 C188.685,16.185 194.856,11.696 197.26,10.334" id="Path" fill="#FFC398"></path>
                <path d="M23.995,651.284 L23.995,683.017 C23.995,683.017 -0.968,687.104 20.27,695.597 C49.041,707.217 76.252,683.895 60.742,640.624 L23.995,651.284 Z" id="Path" fill="#FFC398"></path>
                <path d="M1.519,496.212 C5.408,472.578 41.228,376.41 58.855,329.528 C59.257,330.086 59.421,330.652 59.824,331.21 C70.361,345.07 95.119,357.577 115.273,359.021 C117.677,359.177 119.762,359.177 121.846,359.095 C106.221,394.119 66.512,483.55 60.825,496.212 C53.571,512.165 60.825,640.624 60.825,640.624 L24.078,651.284 C24.077,651.284 -3.208,524.507 1.519,496.212" id="Path" fill="#FFC398"></path>
            </g>
            <path d="M165.073,148.959 C165.073,148.959 186.83,145.111 192.791,74.488 C192.791,74.488 291.813,88.587 293.78,46.213 C295.746,3.839 196.977,-26.091 159.954,33.373 C133.956,75.128 154.45,150.279 165.073,148.959 Z" id="Path" fill="#303642"></path>
            <g id="Group" transform="translate(207.000000, 134.000000)">
                <path d="M75.558,14.976 C79.416,-7.156 49.632,2.596 49.632,2.596 C49.632,2.596 28.49,0.722 19.868,8.786 C11.244,16.85 -8.26,49.948 5.993,60.03 C20.246,70.113 57.755,70.113 72.008,50.608 C86.261,31.103 75.558,14.976 75.558,14.976 Z" id="Path" fill="#303642"></path>
                <path d="M55.505,28.958 C65.717,28.273 67.508,14.602 60.006,14.976 C52.504,15.35 30.942,11.901 33,21.963 C35.057,32.024 42.751,29.813 55.505,28.958 Z" id="Path" fill="#FFC398"></path>
            </g>
        </g>
    </g>
</svg>
