<?xml version="1.0" encoding="utf-8"?>
<!--Designed by Vexels.com - 2017 All Rights Reserved - https://vexels.com/terms-and-conditions/-->
<svg version="1.1" id="Layer_1" xmlns="http://www.w3.org/2000/svg" xmlns:xlink="http://www.w3.org/1999/xlink" x="0px" y="0px"
	 viewBox="0 0 1200 1200" enable-background="new 0 0 1200 1200" xml:space="preserve">
<g>
	<g>
		<g>
			<g>
				<path fill="#FFC398" d="M782.062,618.396l9.7,31.979c0,0-21.639,12.982,1.198,13.064c31.019,0.156,49.926-30.855,16.191-64.837
					L782.062,618.396z"/>
				<path fill="#FFC398" d="M693.755,385.678c2.601-0.484,4.161-0.96,7.131-2.002c23.036-8.338,27.647-32.775,27.647-32.775
					c9.453,44.395,13.704,88.068,13.704,88.068l66.954,159.561l-27.13,19.867c0,0-76.449-112.35-85.548-123.33l-2.479-4.005
					L693.755,385.678z"/>
				<path fill="#303642" d="M424.29,1074.863c3.808,4.169,10.373,9.216,20.836,10.34c13.064,1.362,24.643-1.682,30.453-3.529
					c10.094,20.441,29.65,52.65,22.272,62.752c-7.41,10.258-68.677-21.394-80.576-43.599
					C417.274,1100.828,420.359,1088.97,424.29,1074.863"/>
				<path fill="#303642" d="M705.769,1103.314c14.024,12.901,31.741,37.108,23.207,44.158
					c-12.424,10.175-66.437-13.064-81.504-21.878c-6.696-3.849-15.624-11.062-15.624-11.062l5.727-26.202
					c2.962,2.322,10.857,6.573,26.523,6.573c15.025,0,24.241-4.653,28.573-7.534L705.769,1103.314z"/>
				<path fill="#444148" d="M463.195,925.405c-0.164-1.838-0.041-3.758,0.599-5.687l18.637-211.965l1.723-75.89
					c0,0,38.019,15.304,86.788,11.702c27.441-2.084,57.615-11.382,86.345-28.451c24.322-14.509,37.026-39.504,36.861-46.882v1.846
					l1.329,54.251l13.942,283.531c0,0.156,0,0.32,0,0.402l-13.827,176.941c0,0-1.042,0.96-3.004,2.166
					c-4.25,2.881-13.507,7.534-28.491,7.534c-15.707,0-23.437-4.251-26.604-6.573c-1.198-0.878-1.683-1.526-1.683-1.526
					l-2.962-173.174c-1.124-2.642-1.403-5.367-0.763-8.091l-23.88-192.893c0,0-1.526-8.575-11.743-6.893
					c-7.894,1.363-10.381,4.727-11.382,9.774l-41.424,208.518l-64.156,156.196c0,0-1.559,0.558-3.964,1.436
					c-5.769,1.847-17.348,4.809-30.412,3.529c-10.578-1.124-17.028-6.171-20.836-10.34c-2.888-3.2-4.127-5.925-4.127-5.925
					L463.195,925.405z"/>
				<path fill="#FFBA17" d="M438.79,370.611c10.176-27.162,31.454-48.802,34.786-48.72h0.033c1.362-1.042,2.724-2.166,4.333-3.052
					l79.813-54.251l56.417-11.702c28.976,0.082,42.639-1.198,62.547,2.888c3.488,0.804,6.45,1.764,8.739,2.962
					c19.793,5.211,33.941,48.966,43.074,92.163c0,0-4.611,24.438-27.647,32.775c-2.404,0.878-4.808,1.518-7.016,1.92l0.361,184.482
					l-0.082-1.846c0.123,7.377-12.498,32.373-36.861,46.882c-28.648,17.069-58.822,26.366-86.305,28.451
					c-48.769,3.603-86.829-11.702-86.829-11.702l-14.508-214.533c-15.305-4.965-30.289-14.099-37.822-24.118
					c-0.402-0.558-0.566-1.042-0.969-1.682C434.301,382.395,437.108,375.1,438.79,370.611"/>
				<path fill="#EBA87C" d="M551.707,275.486l6.491-41.827h0.124c-0.041-4.571,3.405-9.462,10.495-13.631
					c13.105-7.607,33.374-9.29,45.24-4.004c5.285,2.486,7.853,5.933,8.009,9.7h0.164l6.212,40.144l0,0
					c1.157,5.933-2.971,12.663-12.547,18.111c-15.748,9.142-40.103,11.382-54.333,4.891c-7.254-3.282-10.373-8.173-9.733-13.384
					H551.707z"/>
				<path fill="#FFC398" d="M569.26,72.334c18.431-10.094,42.508-13.302,58.978-5.843c6.45,2.88,11.783,6.729,15.952,11.694
					c5.408,6.491,21.591,26.448,21.591,65.797c0,48.162-26.604,83.662-26.604,83.662c-11.456,17.233-52.166,24.922-83.424,2.642
					c-6.327-6.007-23.798-25.882-23.798-65.789c0-48.08,25.004-81.257,25.004-81.257C560.685,78.185,566.856,73.696,569.26,72.334"
					/>
				<path fill="#FFC398" d="M395.995,713.284v31.733c0,0-24.963,4.087-3.725,12.58c28.771,11.62,55.982-11.702,40.472-54.973
					L395.995,713.284z"/>
				<path fill="#FFC398" d="M373.519,558.212c3.889-23.634,39.709-119.802,57.336-166.684c0.402,0.558,0.566,1.124,0.969,1.682
					c10.537,13.86,35.295,26.367,55.449,27.811c2.404,0.156,4.489,0.156,6.573,0.074c-15.625,35.024-55.334,124.455-61.021,137.117
					c-7.254,15.953,0,144.412,0,144.412l-36.747,10.66C396.077,713.284,368.792,586.507,373.519,558.212"/>
			</g>
		</g>
		<path fill="#303642" d="M537.073,198.959c0,0,21.757-3.848,27.718-74.471c0,0,99.022,14.099,100.989-28.275
			c1.966-42.374-96.803-72.304-133.826-12.84C505.956,125.128,526.45,200.279,537.073,198.959z"/>
		<g>
			<path fill="#303642" d="M654.558,198.976c3.858-22.132-25.926-12.38-25.926-12.38s-21.142-1.874-29.764,6.19
				c-8.624,8.064-28.128,41.162-13.875,51.244c14.253,10.083,51.762,10.083,66.015-9.422S654.558,198.976,654.558,198.976z"/>
			<path fill="#FFC398" d="M634.505,212.958c10.212-0.685,12.003-14.356,4.501-13.982c-7.502,0.374-29.064-3.075-27.006,6.987
				C614.057,216.024,621.751,213.813,634.505,212.958z"/>
		</g>
	</g>
</g>
</svg>
