<?xml version="1.0" encoding="utf-8"?>
<!--Designed by Vexels.com - 2018 All Rights Reserved - https://vexels.com/terms-and-conditions/-->

<svg width="1100px" height="476px" viewBox="0 0 1100 476" version="1.1" xmlns="http://www.w3.org/2000/svg" xmlns:xlink="http://www.w3.org/1999/xlink">
    <g id="Page-1" stroke="none" stroke-width="1" fill="none" fill-rule="evenodd">
        <g id="park-shrub-icon-by-Vexels">
            <path d="M293.446,475.201 C288.627,458.701 284.906,441.733 282.39,424.376 C279.873,407.019 278.562,389.272 278.562,371.216 C278.562,268.928 320.022,176.324 387.054,109.292 C454.086,42.26 546.69,0.799 648.978,0.799 C751.266,0.799 843.87,42.259 910.902,109.291 C977.934,176.323 1019.395,268.927 1019.395,371.215 C1019.395,389.272 1018.083,407.018 1015.566,424.375 C1013.049,441.732 1009.328,458.7 1004.51,475.2 L648.978,475.2 L293.446,475.2 L293.446,475.201 Z" id="Path" fill="#869E00"></path>
            <g id="Group" transform="translate(380.000000, 71.000000)" fill="#94AB00">
                <g transform="translate(0.000000, 153.000000)" id="Path">
                    <path d="M279.575,192.881 C276.777,191.896 274.29,189.579 272.84,186.779 C271.389,183.979 270.975,180.695 272.322,177.774 C274.559,172.928 276.795,168.081 279.032,163.235 C281.269,158.389 283.505,153.542 285.741,148.696 C287.08,145.795 289.248,143.415 291.886,142.044 C294.524,140.673 297.631,140.31 300.848,141.444 C303.646,142.429 306.133,144.746 307.583,147.546 C309.033,150.346 309.448,153.63 308.1,156.55 C305.863,161.396 303.627,166.243 301.39,171.089 C299.153,175.935 296.917,180.782 294.68,185.628 C293.341,188.529 291.173,190.909 288.536,192.28 C285.9,193.651 282.793,194.014 279.575,192.881 Z"></path>
                    <path d="M186.947,177.046 C182.306,179.603 177.665,182.16 173.025,184.716 C168.384,187.273 163.744,189.83 159.103,192.386 C156.302,193.929 153.008,193.871 150.094,192.737 C147.18,191.603 144.646,189.394 143.365,186.635 C141.94,183.567 141.972,180.407 143.063,177.627 C144.154,174.847 146.304,172.446 149.116,170.897 C153.757,168.34 158.397,165.783 163.038,163.227 C167.679,160.67 172.32,158.113 176.96,155.557 C179.761,154.014 183.055,154.072 185.969,155.206 C188.883,156.34 191.417,158.55 192.698,161.308 C194.123,164.376 194.091,167.536 193,170.316 C191.909,173.096 189.759,175.497 186.947,177.046 Z"></path>
                    <path d="M0.746,151.722 C2.213,147.383 3.681,143.044 5.148,138.705 C6.615,134.366 8.083,130.027 9.55,125.688 C11.997,118.453 18.808,116.806 24.396,118.774 C29.984,120.742 34.351,126.323 31.909,133.542 C30.442,137.881 28.974,142.22 27.507,146.559 C26.04,150.898 24.572,155.237 23.105,159.576 C20.658,166.811 13.847,168.458 8.259,166.49 C2.671,164.522 -1.695,158.942 0.746,151.722 Z"></path>
                    <path d="M171.938,32.118 L148.088,28.246 L124.238,24.374 C116.75,23.158 113.445,16.64 113.896,10.733 C114.347,4.826 118.551,-0.473 126.081,0.75 L149.931,4.623 L173.781,8.495 C181.269,9.711 184.573,16.228 184.123,22.136 C183.672,28.042 179.468,33.34 171.938,32.118 Z"></path>
                </g>
                <g transform="translate(32.000000, 0.000000)" id="Path">
                    <path d="M276.225,150.327 C279.175,150.02 282.414,151.049 284.924,152.959 C287.434,154.869 289.214,157.66 289.246,160.876 C289.299,166.213 289.352,171.55 289.404,176.888 C289.457,182.225 289.51,187.562 289.563,192.9 C289.595,196.095 288.654,199.174 286.856,201.542 C285.059,203.91 282.406,205.568 279.013,205.92 C276.063,206.227 272.824,205.198 270.314,203.288 C267.804,201.378 266.024,198.587 265.993,195.371 C265.94,190.034 265.887,184.697 265.834,179.359 C265.781,174.022 265.728,168.685 265.676,163.347 C265.644,160.152 266.585,157.073 268.382,154.705 C270.18,152.338 272.833,150.68 276.225,150.327 Z"></path>
                    <path d="M11.54,53.91 C14.49,53.603 17.729,54.632 20.239,56.542 C22.749,58.452 24.529,61.243 24.561,64.459 C24.614,69.796 24.667,75.133 24.719,80.471 C24.772,85.808 24.825,91.145 24.878,96.483 C24.91,99.678 23.969,102.757 22.171,105.125 C20.374,107.493 17.721,109.151 14.328,109.503 C11.378,109.81 8.139,108.781 5.629,106.871 C3.119,104.961 1.339,102.17 1.308,98.954 C1.255,93.617 1.202,88.28 1.149,82.942 C1.096,77.605 1.043,72.268 0.991,66.93 C0.959,63.735 1.9,60.656 3.697,58.288 C5.495,55.92 8.148,54.263 11.54,53.91 Z"></path>
                    <path d="M392.48,205.224 C397.613,203.91 402.746,202.595 407.879,201.281 C413.012,199.967 418.145,198.652 423.278,197.338 C426.376,196.545 429.551,197.425 432.088,199.252 C434.625,201.079 436.526,203.852 437.076,206.844 C437.688,210.171 436.866,213.222 435.114,215.641 C433.362,218.06 430.68,219.846 427.57,220.643 C422.437,221.957 417.304,223.272 412.171,224.586 C407.038,225.9 401.905,227.215 396.772,228.529 C393.674,229.322 390.499,228.442 387.962,226.615 C385.425,224.788 383.524,222.015 382.974,219.023 C382.362,215.696 383.184,212.645 384.936,210.226 C386.688,207.807 389.37,206.021 392.48,205.224 Z"></path>
                    <path d="M397.128,16.277 C399.405,18.921 400.192,21.924 399.86,24.853 C399.528,27.782 398.079,30.637 395.884,32.984 C392.873,36.205 389.861,39.426 386.85,42.646 C383.839,45.867 380.827,49.088 377.816,52.308 C375.628,54.648 372.415,55.456 369.267,55.12 C366.119,54.783 363.036,53.302 361.109,51.064 C358.832,48.42 358.045,45.417 358.377,42.488 C358.709,39.559 360.158,36.704 362.353,34.357 C365.364,31.136 368.376,27.915 371.387,24.695 C374.398,21.475 377.41,18.253 380.421,15.033 C382.609,12.693 385.822,11.885 388.97,12.221 C392.117,12.558 395.2,14.039 397.128,16.277 Z"></path>
                    <path d="M206.969,13.868 C213.628,12.862 220.008,11.349 226.213,9.301 C232.418,7.253 238.446,4.671 244.4,1.525 C251.138,-2.035 257.044,1.539 259.58,6.893 C262.116,12.247 261.282,19.383 254.539,22.945 C247.776,26.519 240.737,29.504 233.499,31.882 C226.261,34.26 218.823,36.03 211.26,37.173 C203.74,38.31 198.883,33.055 197.798,27.231 C196.714,21.406 199.401,15.011 206.969,13.868 Z"></path>
                    <path d="M491.434,85.029 C495.211,89.325 498.326,94.176 500.612,99.383 C502.898,104.59 504.356,110.152 504.82,115.873 C505.078,119.057 504.388,122.197 502.79,124.695 C501.192,127.193 498.686,129.051 495.314,129.671 C492.412,130.205 489.092,129.431 486.433,127.723 C483.774,126.015 481.775,123.371 481.516,120.165 C481.208,116.363 480.464,112.883 479.165,109.634 C477.866,106.385 476.012,103.368 473.483,100.492 C468.448,94.765 470.416,88.033 474.903,84.166 C479.39,80.3 486.396,79.298 491.434,85.029 Z"></path>
                    <path d="M532.837,283.741 C530.331,287.575 527.824,291.409 525.318,295.243 C522.812,299.077 520.305,302.911 517.799,306.744 C513.619,313.137 506.613,313.027 501.695,309.724 C496.776,306.421 493.945,299.925 498.116,293.545 C500.622,289.711 503.129,285.877 505.635,282.043 C508.141,278.209 510.648,274.375 513.154,270.541 C517.333,264.148 524.339,264.258 529.258,267.561 C534.177,270.865 537.008,277.361 532.837,283.741 Z"></path>
                    <path d="M358.344,338.465 L380.466,348.182 L402.588,357.899 C409.534,360.95 411.102,368.087 409.188,373.694 C407.274,379.301 401.877,383.379 394.893,380.311 L372.771,370.594 L350.649,360.877 C343.703,357.826 342.135,350.689 344.049,345.082 C345.963,339.475 351.359,335.397 358.344,338.465 Z"></path>
                </g>
            </g>
            <g id="Group" transform="translate(0.000000, 84.000000)">
                <path d="M12.25,391.201 C8.284,377.622 5.222,363.657 3.151,349.372 C1.08,335.086 0,320.481 0,305.621 C0,221.438 34.122,145.225 89.289,90.058 C144.456,34.891 220.67,0.769 304.853,0.769 C389.036,0.769 465.249,34.891 520.417,90.058 C575.585,145.225 609.706,221.439 609.706,305.621 C609.706,320.482 608.626,335.087 606.555,349.372 C604.484,363.657 601.421,377.622 597.456,391.201 L304.853,391.201 L12.25,391.201 Z" id="Path" fill="#A5AF00"></path>
                <g transform="translate(83.000000, 58.000000)" fill="#869E00" id="Path">
                    <g transform="translate(0.000000, 126.000000)">
                        <path d="M230.575,159.203 C228.273,158.392 226.226,156.485 225.032,154.181 C223.838,151.876 223.497,149.174 224.606,146.77 C226.447,142.782 228.287,138.793 230.128,134.805 C231.969,130.817 233.809,126.828 235.65,122.84 C236.752,120.452 238.536,118.494 240.707,117.365 C242.878,116.237 245.435,115.938 248.083,116.871 C250.385,117.682 252.432,119.589 253.626,121.893 C254.82,124.198 255.161,126.9 254.052,129.304 C252.211,133.292 250.371,137.281 248.53,141.269 C246.689,145.257 244.849,149.246 243.008,153.234 C241.906,155.622 240.122,157.58 237.951,158.709 C235.78,159.837 233.222,160.136 230.575,159.203 Z"></path>
                        <path d="M154.341,146.171 C150.522,148.275 146.702,150.379 142.883,152.484 C139.064,154.588 135.244,156.692 131.425,158.797 C129.12,160.067 126.409,160.019 124.011,159.086 C121.613,158.153 119.528,156.334 118.473,154.064 C117.301,151.539 117.327,148.939 118.225,146.65 C119.123,144.362 120.892,142.386 123.207,141.111 C127.026,139.007 130.846,136.903 134.665,134.798 C138.484,132.694 142.304,130.59 146.123,128.485 C148.428,127.215 151.139,127.263 153.537,128.196 C155.935,129.129 158.02,130.948 159.075,133.218 C160.248,135.743 160.221,138.344 159.323,140.632 C158.425,142.921 156.655,144.896 154.341,146.171 Z"></path>
                        <path d="M1.098,125.33 C2.306,121.759 3.513,118.188 4.721,114.617 C5.929,111.046 7.136,107.475 8.344,103.904 C10.358,97.949 15.963,96.594 20.563,98.213 C25.162,99.832 28.756,104.425 26.746,110.367 C25.538,113.938 24.331,117.509 23.123,121.08 C21.915,124.651 20.708,128.222 19.5,131.793 C17.486,137.748 11.881,139.103 7.282,137.484 C2.682,135.865 -0.911,131.272 1.098,125.33 Z"></path>
                        <path d="M141.989,26.895 L122.361,23.708 L102.733,20.521 C96.57,19.52 93.851,14.156 94.221,9.294 C94.592,4.432 98.052,0.071 104.249,1.078 L123.877,4.265 L143.505,7.452 C149.668,8.453 152.387,13.817 152.017,18.679 C151.647,23.541 148.186,27.901 141.989,26.895 Z"></path>
                    </g>
                    <g transform="translate(27.000000, 0.000000)">
                        <path d="M227.154,124.263 C229.582,124.01 232.248,124.858 234.313,126.43 C236.378,128.002 237.843,130.299 237.87,132.945 C237.913,137.338 237.957,141.73 238,146.123 C238.043,150.516 238.087,154.908 238.131,159.301 C238.157,161.931 237.383,164.464 235.904,166.413 C234.425,168.362 232.242,169.726 229.449,170.016 C227.021,170.269 224.355,169.421 222.29,167.85 C220.225,166.279 218.76,163.981 218.733,161.335 C218.69,156.942 218.646,152.55 218.603,148.157 C218.56,143.764 218.516,139.372 218.473,134.98 C218.447,132.35 219.221,129.816 220.7,127.868 C222.178,125.917 224.362,124.553 227.154,124.263 Z"></path>
                        <path d="M9.318,44.911 C11.746,44.658 14.412,45.506 16.477,47.078 C18.542,48.65 20.007,50.947 20.034,53.593 C20.077,57.986 20.121,62.378 20.164,66.771 C20.208,71.164 20.251,75.556 20.295,79.949 C20.321,82.579 19.547,85.112 18.068,87.061 C16.589,89.01 14.406,90.374 11.613,90.664 C9.185,90.916 6.519,90.069 4.454,88.497 C2.389,86.925 0.924,84.628 0.897,81.982 C0.854,77.589 0.81,73.197 0.767,68.804 C0.724,64.411 0.68,60.019 0.637,55.627 C0.611,52.997 1.385,50.463 2.864,48.515 C4.343,46.567 6.525,45.201 9.318,44.911 Z"></path>
                        <path d="M322.832,169.443 C327.056,168.361 331.281,167.28 335.505,166.198 C339.729,165.116 343.954,164.035 348.178,162.953 C350.728,162.3 353.341,163.025 355.429,164.528 C357.517,166.031 359.081,168.314 359.534,170.776 C360.037,173.514 359.361,176.025 357.919,178.016 C356.477,180.007 354.27,181.477 351.71,182.132 C347.486,183.214 343.261,184.295 339.037,185.377 C334.813,186.459 330.588,187.54 326.364,188.622 C323.814,189.275 321.201,188.55 319.113,187.047 C317.025,185.543 315.461,183.261 315.008,180.799 C314.505,178.061 315.181,175.55 316.623,173.559 C318.065,171.569 320.272,170.099 322.832,169.443 Z"></path>
                        <path d="M326.657,13.939 C328.531,16.115 329.178,18.586 328.905,20.997 C328.632,23.408 327.439,25.757 325.633,27.689 C323.155,30.34 320.676,32.991 318.198,35.641 C315.72,38.292 313.241,40.942 310.763,43.593 C308.962,45.519 306.318,46.184 303.728,45.907 C301.138,45.63 298.6,44.411 297.014,42.569 C295.14,40.393 294.493,37.922 294.766,35.511 C295.039,33.1 296.232,30.751 298.038,28.819 C300.516,26.168 302.995,23.518 305.473,20.867 C307.951,18.216 310.43,15.566 312.908,12.915 C314.709,10.989 317.353,10.324 319.944,10.601 C322.533,10.879 325.07,12.098 326.657,13.939 Z"></path>
                        <path d="M170.155,11.956 C175.635,11.128 180.886,9.883 185.993,8.197 C191.1,6.512 196.061,4.386 200.961,1.797 C206.506,-1.133 211.367,1.808 213.454,6.215 C215.541,10.622 214.855,16.494 209.305,19.426 C203.739,22.367 197.946,24.824 191.989,26.781 C186.032,28.738 179.911,30.195 173.686,31.135 C167.497,32.07 163.5,27.746 162.607,22.952 C161.716,18.16 163.927,12.898 170.155,11.956 Z"></path>
                        <path d="M404.271,70.522 C407.38,74.058 409.943,78.05 411.825,82.335 C413.707,86.62 414.907,91.198 415.288,95.907 C415.5,98.527 414.932,101.111 413.617,103.168 C412.302,105.224 410.24,106.753 407.465,107.264 C405.077,107.703 402.344,107.067 400.156,105.661 C397.968,104.255 396.323,102.079 396.109,99.441 C395.855,96.312 395.243,93.448 394.174,90.774 C393.105,88.1 391.579,85.617 389.498,83.25 C385.354,78.537 386.974,72.997 390.667,69.814 C394.359,66.63 400.124,65.805 404.271,70.522 Z"></path>
                        <path d="M438.346,234.062 C436.283,237.217 434.22,240.373 432.158,243.528 C430.095,246.683 428.032,249.839 425.97,252.994 C422.53,258.255 416.764,258.165 412.716,255.446 C408.668,252.728 406.338,247.381 409.771,242.131 C411.834,238.976 413.897,235.821 415.959,232.665 C418.021,229.509 420.085,226.354 422.147,223.199 C425.587,217.938 431.353,218.028 435.401,220.746 C439.449,223.464 441.778,228.812 438.346,234.062 Z"></path>
                        <path d="M294.737,279.1 L312.944,287.097 L331.151,295.094 C336.867,297.605 338.158,303.479 336.583,308.093 C335.008,312.708 330.566,316.064 324.818,313.539 L306.611,305.542 L288.404,297.545 C282.688,295.034 281.397,289.16 282.972,284.546 C284.547,279.932 288.989,276.575 294.737,279.1 Z"></path>
                    </g>
                </g>
                <path d="M598.517,391.201 C604.721,327.4 634.692,270.561 679.469,229.671 C724.246,188.782 783.829,163.842 849.259,163.842 C914.689,163.842 974.272,188.781 1019.049,229.671 C1063.826,270.561 1093.797,327.4 1100.001,391.201 L849.259,391.201 L598.517,391.201 Z" id="Path" fill="#C9C832"></path>
                <g transform="translate(668.000000, 222.000000)" fill="#94AB00" id="Path">
                    <g>
                        <path d="M144.424,127.817 C142.692,124.659 140.96,121.501 139.227,118.343 C137.495,115.185 135.763,112.027 134.03,108.869 C132.984,106.963 133.028,104.724 133.803,102.744 C134.577,100.765 136.083,99.045 137.96,98.178 C140.047,97.213 142.195,97.239 144.084,97.984 C145.973,98.729 147.602,100.194 148.651,102.107 C150.383,105.265 152.115,108.423 153.848,111.581 C155.58,114.739 157.312,117.897 159.045,121.055 C160.091,122.961 160.047,125.2 159.272,127.18 C158.498,129.159 156.992,130.879 155.115,131.746 C153.028,132.711 150.88,132.685 148.991,131.94 C147.103,131.195 145.474,129.73 144.424,127.817 Z"></path>
                        <path d="M2.058,136.981 C3.414,135.035 5.259,134.01 7.244,133.734 C9.229,133.458 11.353,133.93 13.27,134.979 C15.899,136.418 18.529,137.857 21.158,139.296 C23.787,140.735 26.417,142.174 29.046,143.613 C30.957,144.659 32.031,146.638 32.341,148.767 C32.651,150.896 32.196,153.177 31.048,154.824 C29.692,156.77 27.847,157.795 25.862,158.071 C23.877,158.347 21.753,157.875 19.837,156.826 C17.208,155.387 14.578,153.948 11.949,152.509 C9.32,151.07 6.69,149.631 4.061,148.192 C2.151,147.146 1.076,145.167 0.766,143.038 C0.456,140.909 0.91,138.628 2.058,136.981 Z"></path>
                        <path d="M39.701,54.739 C41.892,51.526 44.56,48.656 47.603,46.271 C50.645,43.886 54.062,41.987 57.751,40.715 C59.804,40.007 61.988,39.932 63.903,40.562 C65.818,41.192 67.465,42.529 68.442,44.644 C69.284,46.465 69.335,48.781 68.659,50.821 C67.983,52.86 66.58,54.623 64.513,55.335 C62.061,56.18 59.895,57.258 57.976,58.661 C56.056,60.065 54.383,61.795 52.916,63.946 C49.995,68.229 45.23,68.069 41.926,65.768 C38.622,63.467 36.778,59.025 39.701,54.739 Z"></path>
                        <path d="M161.873,1.273 C164.821,2.276 167.769,3.279 170.716,4.282 C173.664,5.285 176.612,6.288 179.559,7.291 C184.474,8.964 185.585,13.595 184.241,17.392 C182.897,21.189 179.097,24.15 174.192,22.481 C171.244,21.478 168.296,20.475 165.349,19.472 C162.401,18.469 159.453,17.466 156.506,16.463 C151.591,14.791 150.48,10.159 151.824,6.362 C153.169,2.565 156.968,-0.396 161.873,1.273 Z"></path>
                        <path d="M242.963,117.796 L245.625,101.588 L248.287,85.38 C249.123,80.291 253.558,78.053 257.573,78.367 C261.589,78.681 265.185,81.546 264.344,86.663 L261.682,102.871 L259.02,119.079 C258.184,124.168 253.749,126.406 249.734,126.092 C245.719,125.778 242.123,122.913 242.963,117.796 Z"></path>
                    </g>
                    <g transform="translate(294.000000, 23.000000)">
                        <path d="M38.318,7.679 C38.523,9.685 37.819,11.886 36.517,13.589 C35.215,15.293 33.316,16.499 31.13,16.517 C27.502,16.546 23.874,16.575 20.245,16.605 C16.617,16.634 12.989,16.663 9.36,16.693 C7.188,16.71 5.096,16.067 3.489,14.842 C1.881,13.617 0.758,11.812 0.523,9.505 C0.318,7.499 1.022,5.299 2.323,3.595 C3.625,1.891 5.524,0.685 7.71,0.667 C11.338,0.638 14.966,0.609 18.595,0.579 C22.223,0.55 25.851,0.521 29.48,0.492 C31.652,0.474 33.744,1.118 35.351,2.342 C36.958,3.566 38.082,5.372 38.318,7.679 Z"></path>
                        <path d="M49.943,146.201 C49.861,145.745 49.771,145.291 49.684,144.836 C49.597,144.381 49.514,143.925 49.445,143.466 C48.682,138.353 52.26,135.058 56.221,134.328 C60.182,133.598 64.525,135.433 65.293,140.578 C65.435,141.534 65.602,142.477 65.784,143.413 C65.966,144.349 66.164,145.276 66.369,146.201 L58.156,146.201 L49.943,146.201 Z"></path>
                    </g>
                </g>
            </g>
        </g>
    </g>
</svg>
