<?xml version="1.0" encoding="utf-8"?>
<!--Designed by Vexels.com - 2018 All Rights Reserved - https://vexels.com/terms-and-conditions/-->

<svg width="961px" height="1100px" viewBox="0 0 961 1100" version="1.1" xmlns="http://www.w3.org/2000/svg" xmlns:xlink="http://www.w3.org/1999/xlink">
    <g id="Page-1" stroke="none" stroke-width="1" fill="none" fill-rule="evenodd">
        <g id="park-tree-icon-by-Vexels">
            <g id="Group" transform="translate(210.000000, 915.000000)">
                <path d="M9.153,185 C6.462,177.646 4.382,169.998 2.975,162.117 C1.568,154.236 0.833,146.122 0.833,137.836 C0.833,99.942 16.193,65.635 41.026,40.802 C65.859,15.969 100.166,0.609 138.06,0.609 C175.954,0.609 210.261,15.969 235.094,40.802 C259.927,65.635 275.287,99.942 275.287,137.836 C275.287,146.122 274.553,154.236 273.145,162.117 C271.738,169.998 269.658,177.646 266.966,185 L138.059,185 L9.153,185 Z" id="Path" fill="#A5AF00"></path>
                <g transform="translate(38.000000, 26.000000)" fill="#869E00" id="Path">
                    <g transform="translate(0.000000, 57.000000)">
                        <path d="M103.985,71.753 C102.949,71.388 102.027,70.53 101.49,69.492 C100.953,68.455 100.799,67.238 101.298,66.156 C102.127,64.361 102.955,62.565 103.784,60.77 C104.613,58.975 105.441,57.179 106.27,55.384 C106.766,54.309 107.569,53.428 108.546,52.92 C109.523,52.412 110.674,52.278 111.866,52.698 C112.902,53.063 113.824,53.921 114.361,54.959 C114.898,55.996 115.052,57.213 114.553,58.295 C113.724,60.09 112.896,61.886 112.067,63.681 C111.238,65.476 110.41,67.272 109.581,69.067 C109.085,70.142 108.282,71.024 107.305,71.531 C106.328,72.038 105.177,72.173 103.985,71.753 Z"></path>
                        <path d="M69.67,65.887 C67.951,66.834 66.231,67.781 64.512,68.729 C62.793,69.676 61.074,70.623 59.354,71.571 C58.316,72.143 57.096,72.121 56.017,71.701 C54.938,71.281 53.999,70.462 53.524,69.44 C52.996,68.303 53.008,67.133 53.412,66.103 C53.816,65.073 54.613,64.184 55.654,63.61 C57.373,62.663 59.092,61.716 60.812,60.768 C62.531,59.821 64.25,58.874 65.97,57.926 C67.008,57.354 68.228,57.376 69.307,57.796 C70.386,58.216 71.325,59.035 71.8,60.057 C72.328,61.194 72.316,62.364 71.912,63.394 C71.508,64.424 70.711,65.313 69.67,65.887 Z"></path>
                        <path d="M0.689,56.506 C1.233,54.899 1.776,53.291 2.32,51.684 C2.864,50.076 3.407,48.469 3.951,46.862 C4.858,44.182 7.381,43.572 9.451,44.3 C11.521,45.029 13.139,47.097 12.234,49.771 C11.69,51.379 11.147,52.986 10.603,54.593 C10.059,56.2 9.516,57.808 8.972,59.415 C8.065,62.095 5.542,62.705 3.472,61.977 C1.402,61.248 -0.216,59.18 0.689,56.506 Z"></path>
                        <path d="M64.109,12.196 L55.273,10.761 L46.437,9.326 C43.663,8.876 42.439,6.461 42.606,4.272 C42.773,2.083 44.331,0.121 47.12,0.574 L55.956,2.009 L64.792,3.444 C67.566,3.895 68.79,6.309 68.623,8.498 C68.457,10.686 66.899,12.649 64.109,12.196 Z"></path>
                    </g>
                    <g transform="translate(12.000000, 0.000000)">
                        <path d="M102.599,56.308 C103.692,56.194 104.892,56.576 105.822,57.283 C106.752,57.991 107.411,59.024 107.423,60.216 C107.443,62.193 107.462,64.17 107.482,66.148 C107.502,68.125 107.521,70.102 107.541,72.08 C107.553,73.264 107.204,74.404 106.538,75.282 C105.872,76.16 104.889,76.773 103.633,76.904 C102.54,77.018 101.34,76.636 100.41,75.929 C99.48,75.221 98.821,74.188 98.809,72.996 C98.789,71.019 98.77,69.041 98.75,67.064 C98.73,65.087 98.711,63.11 98.691,61.132 C98.679,59.948 99.028,58.808 99.694,57.93 C100.359,57.052 101.342,56.438 102.599,56.308 Z"></path>
                        <path d="M4.543,20.588 C5.636,20.474 6.836,20.856 7.766,21.563 C8.696,22.27 9.355,23.304 9.367,24.496 C9.387,26.473 9.406,28.45 9.426,30.428 C9.446,32.405 9.465,34.382 9.485,36.36 C9.497,37.544 9.148,38.684 8.482,39.562 C7.816,40.439 6.833,41.053 5.577,41.184 C4.484,41.298 3.284,40.916 2.354,40.209 C1.424,39.501 0.765,38.468 0.753,37.276 C0.733,35.299 0.714,33.321 0.694,31.344 C0.674,29.367 0.655,27.389 0.635,25.412 C0.623,24.228 0.972,23.088 1.638,22.21 C2.303,21.333 3.286,20.719 4.543,20.588 Z"></path>
                        <path d="M145.668,76.645 C147.57,76.158 149.471,75.671 151.373,75.184 C153.275,74.697 155.176,74.21 157.078,73.723 C158.226,73.429 159.402,73.755 160.342,74.432 C161.282,75.109 161.986,76.136 162.19,77.245 C162.417,78.477 162.112,79.608 161.463,80.504 C160.814,81.4 159.82,82.062 158.668,82.357 C156.766,82.844 154.865,83.331 152.963,83.818 C151.061,84.305 149.16,84.792 147.258,85.279 C146.11,85.573 144.934,85.247 143.994,84.57 C143.054,83.893 142.35,82.866 142.146,81.757 C141.919,80.524 142.224,79.394 142.873,78.498 C143.522,77.602 144.516,76.94 145.668,76.645 Z"></path>
                        <path d="M147.389,6.647 C148.233,7.626 148.524,8.739 148.401,9.824 C148.278,10.909 147.741,11.967 146.928,12.836 C145.812,14.029 144.697,15.222 143.581,16.416 C142.465,17.609 141.35,18.802 140.234,19.996 C139.423,20.863 138.233,21.162 137.067,21.038 C135.901,20.913 134.759,20.365 134.045,19.535 C133.201,18.556 132.91,17.443 133.033,16.358 C133.156,15.273 133.693,14.215 134.506,13.346 C135.622,12.153 136.737,10.96 137.853,9.766 C138.969,8.573 140.084,7.38 141.2,6.186 C142.011,5.319 143.201,5.02 144.367,5.144 C145.533,5.269 146.675,5.818 147.389,6.647 Z"></path>
                        <path d="M76.942,5.754 C79.409,5.381 81.773,4.821 84.071,4.062 C86.37,3.303 88.603,2.347 90.809,1.181 C93.305,-0.138 95.493,1.186 96.433,3.17 C97.372,5.154 97.063,7.797 94.566,9.117 C92.06,10.441 89.453,11.547 86.772,12.428 C84.091,13.309 81.335,13.965 78.533,14.388 C75.747,14.809 73.948,12.862 73.546,10.705 C73.143,8.547 74.138,6.178 76.942,5.754 Z"></path>
                        <path d="M182.327,32.117 C183.726,33.709 184.88,35.506 185.727,37.435 C186.574,39.364 187.114,41.425 187.286,43.544 C187.382,44.724 187.126,45.887 186.534,46.812 C185.942,47.737 185.014,48.426 183.765,48.656 C182.69,48.854 181.46,48.567 180.475,47.934 C179.49,47.301 178.75,46.322 178.653,45.134 C178.539,43.725 178.263,42.436 177.782,41.233 C177.301,40.03 176.614,38.912 175.677,37.846 C173.812,35.724 174.541,33.231 176.203,31.798 C177.865,30.365 180.46,29.994 182.327,32.117 Z"></path>
                        <path d="M197.665,105.733 C196.736,107.153 195.808,108.574 194.879,109.994 C193.95,111.414 193.022,112.835 192.093,114.255 C190.545,116.623 187.949,116.583 186.127,115.359 C184.305,114.135 183.256,111.729 184.801,109.365 C185.73,107.945 186.658,106.524 187.587,105.104 C188.516,103.684 189.444,102.263 190.373,100.843 C191.921,98.475 194.517,98.515 196.339,99.739 C198.161,100.963 199.21,103.369 197.665,105.733 Z"></path>
                        <path d="M133.021,126.006 L141.217,129.606 L149.413,133.206 C151.986,134.336 152.567,136.98 151.858,139.058 C151.149,141.135 149.15,142.646 146.562,141.509 L138.366,137.909 L130.17,134.309 C127.597,133.179 127.016,130.535 127.725,128.457 C128.434,126.38 130.434,124.87 133.021,126.006 Z"></path>
                    </g>
                </g>
            </g>
            <g id="Group">
                <g>
                    <path d="M596.923,334.562 C596.923,379.908 615.303,420.96 645.019,450.677 C674.735,480.393 715.788,498.773 761.134,498.773 C806.48,498.773 847.532,480.393 877.249,450.677 C906.965,420.961 925.345,379.908 925.345,334.562 C925.345,289.216 906.965,248.164 877.249,218.447 C847.533,188.73 806.48,170.351 761.134,170.351 C715.788,170.351 674.736,188.731 645.019,218.447 C615.302,248.163 596.923,289.217 596.923,334.562 Z" id="Path" fill="#869E00"></path>
                    <g transform="translate(660.000000, 268.000000)" fill="#94AB00" id="Path">
                        <g transform="translate(0.000000, 8.000000)">
                            <path d="M75.563,102.437 C75.693,101.365 76.322,100.298 77.204,99.562 C78.086,98.826 79.221,98.42 80.366,98.67 C82.265,99.084 84.165,99.499 86.064,99.913 C87.963,100.327 89.863,100.742 91.762,101.156 C92.899,101.404 93.916,101.988 94.611,102.818 C95.306,103.648 95.679,104.725 95.529,105.958 C95.399,107.03 94.77,108.097 93.888,108.833 C93.006,109.569 91.871,109.975 90.726,109.725 C88.827,109.311 86.927,108.896 85.028,108.482 C83.129,108.068 81.229,107.653 79.33,107.239 C78.193,106.991 77.176,106.407 76.481,105.577 C75.786,104.746 75.413,103.67 75.563,102.437 Z"></path>
                            <path d="M73.91,68.248 C72.636,66.799 71.361,65.349 70.087,63.9 C68.813,62.451 67.538,61.001 66.264,59.552 C65.495,58.677 65.256,57.501 65.431,56.376 C65.606,55.251 66.192,54.176 67.072,53.503 C68.051,52.755 69.177,52.518 70.252,52.687 C71.327,52.856 72.349,53.432 73.122,54.31 C74.396,55.759 75.671,57.209 76.945,58.658 C78.219,60.107 79.494,61.557 80.768,63.006 C81.537,63.881 81.776,65.057 81.601,66.182 C81.427,67.307 80.84,68.382 79.96,69.055 C78.981,69.803 77.855,70.04 76.78,69.871 C75.705,69.702 74.682,69.126 73.91,68.248 Z"></path>
                            <path d="M0.526,89.648 C1.008,88.472 1.853,87.721 2.859,87.345 C3.865,86.969 5.031,86.968 6.155,87.293 C7.698,87.739 9.241,88.185 10.784,88.63 C12.327,89.076 13.87,89.522 15.413,89.968 C16.534,90.292 17.327,91.202 17.738,92.279 C18.149,93.357 18.177,94.602 17.768,95.597 C17.286,96.773 16.441,97.524 15.435,97.9 C14.429,98.276 13.263,98.277 12.139,97.952 C10.596,97.506 9.053,97.06 7.51,96.614 C5.967,96.168 4.424,95.722 2.881,95.277 C1.76,94.953 0.967,94.043 0.557,92.966 C0.147,91.889 0.118,90.643 0.526,89.648 Z"></path>
                            <path d="M31.788,150.213 C30.362,148.217 28.817,146.396 27.128,144.719 C25.439,143.042 23.605,141.512 21.6,140.098 C19.332,138.498 19.517,135.991 20.836,134.283 C22.156,132.576 24.61,131.668 26.88,133.269 C29.157,134.875 31.288,136.667 33.256,138.624 C35.223,140.581 37.026,142.704 38.646,144.97 C40.257,147.224 39.353,149.668 37.641,150.982 C35.929,152.298 33.409,152.481 31.788,150.213 Z"></path>
                            <path d="M10.619,42.247 C11.39,40.311 12.451,38.499 13.763,36.897 C15.075,35.295 16.641,33.903 18.422,32.808 C19.413,32.198 20.546,31.904 21.621,32.01 C22.696,32.116 23.713,32.623 24.471,33.615 C25.123,34.469 25.421,35.675 25.305,36.82 C25.189,37.965 24.661,39.051 23.663,39.664 C22.479,40.392 21.472,41.208 20.632,42.166 C19.792,43.124 19.118,44.224 18.602,45.52 C17.574,48.1 15.064,48.573 13.067,47.755 C11.072,46.938 9.59,44.83 10.619,42.247 Z"></path>
                            <path d="M68.273,0.034 C69.932,0.215 71.59,0.395 73.249,0.576 C74.908,0.757 76.566,0.937 78.225,1.118 C80.991,1.419 82.112,3.712 81.852,5.854 C81.592,7.996 79.95,9.988 77.19,9.687 C75.531,9.506 73.873,9.326 72.214,9.145 C70.555,8.964 68.897,8.784 67.238,8.603 C64.472,8.302 63.351,6.009 63.611,3.867 C63.871,1.725 65.513,-0.266 68.273,0.034 Z"></path>
                            <path d="M124.273,51.513 L123.775,42.726 L123.277,33.939 C123.121,31.18 125.179,29.492 127.315,29.188 C129.452,28.884 131.667,29.962 131.824,32.737 L132.322,41.524 L132.82,50.311 C132.976,53.07 130.918,54.758 128.782,55.062 C126.646,55.366 124.431,54.287 124.273,51.513 Z"></path>
                        </g>
                        <g transform="translate(31.000000, 0.000000)">
                            <path d="M116.365,105.247 C116.706,106.272 116.595,107.505 116.113,108.548 C115.631,109.591 114.779,110.443 113.637,110.708 C111.743,111.147 109.849,111.585 107.955,112.024 C106.061,112.463 104.167,112.901 102.273,113.34 C101.139,113.602 99.97,113.51 98.987,113.057 C98.003,112.604 97.205,111.791 96.813,110.612 C96.472,109.587 96.583,108.354 97.065,107.311 C97.547,106.268 98.399,105.416 99.541,105.152 C101.435,104.713 103.329,104.275 105.223,103.836 C107.117,103.397 109.011,102.959 110.905,102.521 C112.039,102.258 113.208,102.351 114.191,102.804 C115.174,103.257 115.972,104.068 116.365,105.247 Z"></path>
                            <path d="M129.84,3.53 C130.181,4.555 130.07,5.788 129.588,6.831 C129.106,7.874 128.254,8.726 127.112,8.991 C125.218,9.43 123.324,9.868 121.43,10.307 C119.536,10.746 117.642,11.184 115.748,11.623 C114.614,11.886 113.445,11.793 112.462,11.34 C111.478,10.887 110.68,10.074 110.288,8.895 C109.947,7.87 110.058,6.637 110.54,5.594 C111.022,4.551 111.874,3.699 113.016,3.434 C114.91,2.995 116.804,2.557 118.698,2.118 C120.592,1.679 122.486,1.241 124.38,0.803 C125.514,0.54 126.683,0.633 127.666,1.086 C128.65,1.538 129.448,2.351 129.84,3.53 Z"></path>
                            <path d="M105.983,150.91 C106.854,152.632 107.725,154.354 108.596,156.076 C109.467,157.798 110.338,159.52 111.209,161.242 C111.735,162.282 111.671,163.48 111.221,164.526 C110.771,165.572 109.934,166.466 108.913,166.897 C107.778,167.376 106.628,167.324 105.63,166.891 C104.632,166.458 103.786,165.645 103.258,164.601 C102.387,162.879 101.516,161.157 100.645,159.435 C99.774,157.713 98.903,155.991 98.032,154.269 C97.506,153.229 97.57,152.031 98.02,150.985 C98.47,149.939 99.307,149.045 100.328,148.614 C101.463,148.135 102.613,148.187 103.611,148.62 C104.609,149.054 105.455,149.867 105.983,150.91 Z"></path>
                            <path d="M173.547,137.704 C172.786,138.722 171.78,139.238 170.712,139.35 C169.644,139.462 168.515,139.171 167.508,138.576 C166.126,137.758 164.743,136.941 163.361,136.123 C161.979,135.305 160.596,134.488 159.214,133.67 C158.21,133.076 157.67,131.997 157.542,130.851 C157.414,129.705 157.698,128.492 158.343,127.631 C159.104,126.613 160.11,126.097 161.178,125.985 C162.246,125.873 163.375,126.164 164.382,126.759 C165.764,127.577 167.147,128.394 168.529,129.212 C169.911,130.03 171.294,130.847 172.676,131.665 C173.68,132.259 174.22,133.338 174.348,134.484 C174.476,135.63 174.192,136.843 173.547,137.704 Z"></path>
                            <path d="M17.879,193.485 C18.28,194.691 18.129,195.812 17.612,196.753 C17.095,197.694 16.211,198.455 15.147,198.942 C13.687,199.61 12.226,200.279 10.766,200.947 C9.306,201.615 7.845,202.283 6.385,202.952 C5.324,203.438 4.13,203.265 3.116,202.716 C2.102,202.167 1.268,201.241 0.929,200.22 C0.528,199.014 0.679,197.893 1.196,196.952 C1.713,196.011 2.597,195.25 3.661,194.763 C5.121,194.095 6.582,193.427 8.042,192.758 C9.502,192.09 10.963,191.421 12.423,190.753 C13.484,190.267 14.678,190.44 15.692,190.989 C16.705,191.538 17.539,192.464 17.879,193.485 Z"></path>
                            <path d="M159.45,69.885 C160.332,72.174 161.371,74.324 162.588,76.37 C163.805,78.416 165.197,80.357 166.784,82.227 C168.58,84.343 167.774,86.725 166.069,88.048 C164.364,89.371 161.761,89.635 159.964,87.518 C158.161,85.394 156.546,83.125 155.131,80.738 C153.716,78.351 152.502,75.845 151.5,73.245 C150.504,70.66 151.991,68.519 153.977,67.675 C155.963,66.831 158.448,67.283 159.45,69.885 Z"></path>
                            <path d="M156.512,176.651 C155.281,178.332 153.801,179.821 152.129,181.044 C150.457,182.267 148.593,183.223 146.595,183.837 C145.483,184.179 144.312,184.181 143.298,183.809 C142.284,183.437 141.426,182.692 140.94,181.542 C140.522,180.552 140.536,179.31 140.935,178.23 C141.333,177.15 142.116,176.231 143.236,175.887 C144.564,175.478 145.743,174.94 146.796,174.223 C147.849,173.506 148.776,172.609 149.601,171.483 C151.242,169.242 153.791,169.413 155.519,170.704 C157.247,171.996 158.154,174.408 156.512,176.651 Z"></path>
                            <path d="M89.097,207.003 C87.536,206.413 85.976,205.823 84.415,205.233 C82.854,204.643 81.294,204.053 79.733,203.463 C77.131,202.479 76.619,199.979 77.407,197.97 C78.195,195.961 80.283,194.443 82.879,195.425 C84.44,196.015 86,196.605 87.561,197.195 C89.122,197.785 90.682,198.375 92.243,198.965 C94.845,199.949 95.357,202.449 94.569,204.458 C93.781,206.467 91.693,207.985 89.097,207.003 Z"></path>
                            <path d="M55.911,149.248 L54.195,157.88 L52.479,166.512 C51.94,169.222 49.525,170.341 47.381,170.102 C45.236,169.862 43.362,168.264 43.903,165.538 L45.619,156.906 L47.335,148.274 C47.874,145.564 50.289,144.445 52.433,144.685 C54.579,144.924 56.453,146.523 55.911,149.248 Z"></path>
                        </g>
                    </g>
                    <path d="M249.081,192.77 C249.081,246.002 270.657,294.194 305.542,329.079 C340.427,363.964 388.619,385.54 441.851,385.54 C495.083,385.54 543.275,363.964 578.16,329.079 C613.045,294.194 634.621,246.002 634.621,192.77 C634.621,139.538 613.045,91.346 578.16,56.461 C543.275,21.576 495.082,0 441.851,0 C388.619,0 340.427,21.576 305.542,56.461 C270.657,91.346 249.081,139.538 249.081,192.77 Z" id="Path" fill="#869E00"></path>
                    <g transform="translate(325.000000, 17.000000)" fill="#94AB00" id="Path">
                        <g transform="translate(0.000000, 7.000000)">
                            <path d="M75.983,102.889 C76.113,101.817 76.742,100.75 77.624,100.014 C78.506,99.278 79.641,98.872 80.786,99.122 C82.685,99.536 84.585,99.951 86.484,100.365 C88.383,100.779 90.283,101.194 92.182,101.608 C93.319,101.856 94.336,102.44 95.031,103.27 C95.726,104.1 96.099,105.177 95.949,106.41 C95.819,107.482 95.19,108.549 94.308,109.285 C93.426,110.021 92.291,110.427 91.146,110.177 C89.247,109.763 87.347,109.348 85.448,108.934 C83.549,108.52 81.649,108.105 79.75,107.691 C78.613,107.443 77.596,106.859 76.901,106.029 C76.207,105.199 75.833,104.122 75.983,102.889 Z"></path>
                            <path d="M74.33,68.7 C73.056,67.251 71.781,65.801 70.507,64.352 C69.233,62.903 67.958,61.453 66.684,60.004 C65.915,59.129 65.676,57.953 65.851,56.828 C66.026,55.703 66.612,54.628 67.492,53.955 C68.471,53.207 69.597,52.97 70.672,53.139 C71.747,53.308 72.769,53.884 73.542,54.762 C74.816,56.211 76.091,57.661 77.365,59.11 C78.639,60.559 79.914,62.009 81.188,63.458 C81.957,64.333 82.196,65.509 82.021,66.634 C81.847,67.759 81.26,68.834 80.38,69.507 C79.401,70.255 78.275,70.492 77.2,70.323 C76.125,70.154 75.102,69.578 74.33,68.7 Z"></path>
                            <path d="M0.947,90.1 C1.429,88.924 2.274,88.173 3.28,87.797 C4.286,87.421 5.452,87.42 6.576,87.745 C8.119,88.191 9.662,88.637 11.205,89.082 C12.748,89.528 14.291,89.974 15.834,90.42 C16.955,90.744 17.748,91.654 18.158,92.731 C18.568,93.808 18.597,95.054 18.188,96.049 C17.706,97.225 16.861,97.976 15.855,98.352 C14.849,98.728 13.683,98.729 12.559,98.404 C11.016,97.958 9.473,97.512 7.93,97.066 C6.387,96.62 4.844,96.174 3.301,95.729 C2.18,95.405 1.387,94.495 0.977,93.418 C0.567,92.341 0.539,91.096 0.947,90.1 Z"></path>
                            <path d="M32.208,150.665 C30.782,148.669 29.237,146.848 27.548,145.171 C25.859,143.495 24.025,141.964 22.02,140.55 C19.752,138.95 19.937,136.443 21.256,134.735 C22.576,133.028 25.03,132.12 27.3,133.721 C29.577,135.327 31.708,137.119 33.676,139.076 C35.644,141.033 37.446,143.156 39.066,145.422 C40.677,147.676 39.773,150.12 38.061,151.434 C36.349,152.75 33.829,152.934 32.208,150.665 Z"></path>
                            <path d="M11.039,42.7 C11.81,40.764 12.871,38.952 14.183,37.35 C15.496,35.748 17.061,34.356 18.842,33.261 C19.833,32.651 20.966,32.357 22.042,32.463 C23.117,32.569 24.134,33.076 24.892,34.068 C25.544,34.922 25.842,36.128 25.726,37.273 C25.61,38.418 25.082,39.504 24.084,40.117 C22.9,40.845 21.893,41.661 21.053,42.619 C20.213,43.577 19.539,44.677 19.023,45.973 C17.995,48.553 15.485,49.026 13.488,48.208 C11.492,47.391 10.01,45.282 11.039,42.7 Z"></path>
                            <path d="M68.694,0.487 C70.353,0.668 72.011,0.848 73.67,1.029 C75.329,1.21 76.987,1.39 78.646,1.571 C81.412,1.872 82.533,4.165 82.273,6.307 C82.013,8.449 80.371,10.441 77.611,10.14 C75.952,9.959 74.294,9.779 72.635,9.598 C70.976,9.417 69.318,9.237 67.659,9.056 C64.893,8.755 63.772,6.462 64.032,4.32 C64.292,2.178 65.934,0.186 68.694,0.487 Z"></path>
                            <path d="M124.694,51.965 L124.196,43.178 L123.698,34.391 C123.542,31.632 125.6,29.944 127.736,29.64 C129.873,29.336 132.088,30.414 132.245,33.189 L132.743,41.976 L133.241,50.763 C133.397,53.522 131.339,55.21 129.203,55.514 C127.066,55.818 124.851,54.739 124.694,51.965 Z"></path>
                        </g>
                        <g transform="translate(32.000000, 0.000000)">
                            <path d="M115.785,104.7 C116.126,105.725 116.015,106.958 115.533,108.001 C115.051,109.044 114.199,109.896 113.057,110.161 C111.163,110.6 109.269,111.038 107.375,111.477 C105.481,111.916 103.587,112.354 101.693,112.793 C100.559,113.055 99.39,112.963 98.407,112.51 C97.424,112.057 96.625,111.244 96.233,110.065 C95.892,109.04 96.003,107.807 96.485,106.764 C96.967,105.721 97.819,104.869 98.961,104.604 C100.855,104.165 102.749,103.727 104.643,103.288 C106.537,102.849 108.431,102.411 110.325,101.973 C111.459,101.71 112.628,101.803 113.611,102.256 C114.594,102.709 115.393,103.521 115.785,104.7 Z"></path>
                            <path d="M129.26,2.982 C129.601,4.007 129.49,5.24 129.008,6.283 C128.526,7.326 127.674,8.178 126.532,8.443 C124.638,8.882 122.744,9.32 120.85,9.759 C118.956,10.198 117.062,10.636 115.168,11.075 C114.034,11.337 112.865,11.245 111.882,10.792 C110.898,10.339 110.1,9.526 109.708,8.347 C109.367,7.322 109.478,6.089 109.96,5.046 C110.442,4.003 111.294,3.151 112.436,2.886 C114.33,2.447 116.224,2.009 118.118,1.57 C120.012,1.131 121.906,0.693 123.8,0.255 C124.934,-0.008 126.103,0.085 127.086,0.538 C128.069,0.991 128.868,1.803 129.26,2.982 Z"></path>
                            <path d="M105.403,150.363 C106.274,152.085 107.145,153.807 108.016,155.529 C108.887,157.251 109.758,158.973 110.629,160.695 C111.155,161.735 111.091,162.933 110.641,163.979 C110.191,165.025 109.354,165.919 108.333,166.35 C107.198,166.829 106.048,166.777 105.05,166.344 C104.052,165.911 103.206,165.098 102.678,164.054 C101.807,162.332 100.936,160.61 100.065,158.888 C99.194,157.166 98.323,155.444 97.452,153.722 C96.926,152.682 96.99,151.484 97.44,150.438 C97.89,149.392 98.727,148.498 99.748,148.067 C100.883,147.588 102.033,147.64 103.031,148.073 C104.029,148.506 104.875,149.319 105.403,150.363 Z"></path>
                            <path d="M172.968,137.156 C172.207,138.174 171.201,138.69 170.133,138.802 C169.065,138.914 167.936,138.623 166.929,138.028 C165.547,137.21 164.164,136.393 162.782,135.575 C161.4,134.757 160.017,133.94 158.635,133.122 C157.631,132.528 157.091,131.449 156.963,130.303 C156.835,129.157 157.119,127.944 157.764,127.083 C158.525,126.065 159.531,125.549 160.599,125.437 C161.667,125.325 162.796,125.616 163.803,126.211 C165.185,127.029 166.568,127.846 167.95,128.664 C169.332,129.482 170.715,130.299 172.097,131.117 C173.101,131.711 173.641,132.79 173.769,133.936 C173.896,135.082 173.612,136.295 172.968,137.156 Z"></path>
                            <path d="M17.299,192.937 C17.7,194.143 17.549,195.264 17.032,196.204 C16.515,197.144 15.631,197.906 14.567,198.393 C13.107,199.061 11.646,199.73 10.186,200.398 C8.726,201.066 7.265,201.734 5.805,202.403 C4.744,202.889 3.55,202.716 2.536,202.167 C1.522,201.618 0.688,200.692 0.349,199.671 C-0.052,198.465 0.099,197.344 0.616,196.404 C1.133,195.464 2.017,194.702 3.081,194.215 C4.541,193.547 6.002,192.879 7.462,192.21 C8.922,191.542 10.383,190.873 11.843,190.205 C12.904,189.719 14.098,189.892 15.112,190.441 C16.126,190.991 16.959,191.916 17.299,192.937 Z"></path>
                            <path d="M158.87,69.337 C159.752,71.626 160.791,73.776 162.008,75.822 C163.224,77.868 164.617,79.809 166.204,81.679 C168,83.795 167.193,86.177 165.489,87.5 C163.784,88.823 161.181,89.087 159.384,86.97 C157.581,84.846 155.966,82.577 154.551,80.19 C153.136,77.803 151.922,75.297 150.92,72.697 C149.924,70.112 151.411,67.971 153.397,67.127 C155.383,66.283 157.868,66.735 158.87,69.337 Z"></path>
                            <path d="M155.933,176.103 C154.702,177.784 153.222,179.273 151.55,180.496 C149.878,181.719 148.014,182.675 146.016,183.289 C144.904,183.631 143.733,183.633 142.719,183.261 C141.705,182.889 140.847,182.144 140.361,180.994 C139.943,180.004 139.957,178.762 140.355,177.682 C140.754,176.602 141.537,175.683 142.656,175.339 C143.984,174.93 145.163,174.392 146.216,173.675 C147.269,172.958 148.196,172.061 149.021,170.935 C150.662,168.694 153.211,168.865 154.939,170.156 C156.667,171.448 157.575,173.86 155.933,176.103 Z"></path>
                            <path d="M88.517,206.455 C86.956,205.865 85.396,205.275 83.835,204.685 C82.274,204.095 80.714,203.505 79.153,202.915 C76.551,201.931 76.039,199.431 76.827,197.422 C77.615,195.413 79.703,193.895 82.299,194.877 C83.86,195.467 85.42,196.057 86.981,196.647 C88.542,197.237 90.102,197.827 91.663,198.417 C94.265,199.401 94.777,201.901 93.989,203.91 C93.202,205.919 91.114,207.437 88.517,206.455 Z"></path>
                            <path d="M55.332,148.7 L53.616,157.332 L51.9,165.964 C51.361,168.674 48.946,169.793 46.801,169.554 C44.656,169.314 42.782,167.715 43.323,164.99 L45.039,156.358 L46.755,147.726 C47.294,145.016 49.709,143.897 51.853,144.137 C53.997,144.377 55.874,145.975 55.332,148.7 Z"></path>
                        </g>
                    </g>
                    <path d="M52.392,439.236 C84.587,468.651 125.656,482.231 166.031,480.409 C206.406,478.587 246.085,461.363 275.5,429.168 C304.915,396.973 318.495,355.904 316.673,315.529 C314.851,275.154 297.627,235.475 265.432,206.06 C233.237,176.645 192.168,163.065 151.793,164.887 C111.418,166.709 71.739,183.933 42.324,216.128 C12.909,248.323 -0.671,289.392 1.151,329.767 C2.973,370.142 20.198,409.821 52.392,439.236 Z" id="Path" fill="#869E00"></path>
                    <g transform="translate(22.000000, 200.000000)" fill="#94AB00" id="Path">
                        <g transform="translate(0.000000, 44.000000)">
                            <path d="M87.881,87.06 C87.2,86.267 86.848,85.122 86.898,84.011 C86.948,82.901 87.399,81.825 88.324,81.17 C89.86,80.084 91.395,78.997 92.931,77.911 C94.467,76.824 96.002,75.738 97.538,74.651 C98.457,74.001 99.538,73.655 100.585,73.701 C101.632,73.746 102.644,74.182 103.428,75.095 C104.109,75.888 104.461,77.033 104.411,78.144 C104.361,79.254 103.91,80.33 102.985,80.985 C101.449,82.071 99.914,83.158 98.378,84.244 C96.842,85.33 95.307,86.417 93.771,87.503 C92.852,88.153 91.771,88.499 90.724,88.453 C89.677,88.408 88.665,87.972 87.881,87.06 Z"></path>
                            <path d="M62.379,65.927 C60.512,65.891 58.645,65.856 56.778,65.82 C54.911,65.784 53.044,65.749 51.177,65.713 C50.05,65.691 49.054,65.094 48.364,64.235 C47.674,63.376 47.289,62.255 47.383,61.187 C47.488,59.999 48.053,59.04 48.876,58.383 C49.698,57.726 50.777,57.371 51.909,57.393 C53.776,57.429 55.643,57.464 57.51,57.5 C59.377,57.536 61.244,57.571 63.111,57.607 C64.238,57.629 65.234,58.226 65.924,59.085 C66.614,59.944 66.999,61.065 66.905,62.133 C66.8,63.321 66.235,64.28 65.412,64.937 C64.589,65.594 63.511,65.948 62.379,65.927 Z"></path>
                            <path d="M29.771,132.316 C29.246,131.204 29.261,130.11 29.649,129.146 C30.037,128.182 30.797,127.349 31.763,126.757 C33.088,125.946 34.414,125.135 35.739,124.323 C37.065,123.512 38.39,122.701 39.716,121.889 C40.679,121.3 41.846,121.327 42.884,121.737 C43.922,122.147 44.83,122.94 45.274,123.881 C45.799,124.993 45.784,126.087 45.396,127.051 C45.008,128.015 44.248,128.848 43.282,129.44 C41.956,130.251 40.631,131.062 39.305,131.874 C37.979,132.685 36.654,133.496 35.329,134.308 C34.366,134.897 33.199,134.87 32.161,134.46 C31.123,134.05 30.216,133.258 29.771,132.316 Z"></path>
                            <path d="M93.441,149.514 C91.085,149.23 88.775,149.145 86.475,149.258 C84.175,149.371 81.884,149.682 79.566,150.191 C76.943,150.767 75.272,148.999 74.914,146.941 C74.556,144.884 75.509,142.538 78.134,141.962 C80.767,141.383 83.439,141.03 86.121,140.903 C88.803,140.776 91.496,140.873 94.173,141.195 C96.834,141.515 97.991,143.757 97.812,145.837 C97.632,147.916 96.119,149.836 93.441,149.514 Z"></path>
                            <path d="M2.497,94.17 C1.617,92.356 1.015,90.415 0.727,88.432 C0.439,86.449 0.467,84.422 0.847,82.435 C1.058,81.329 1.588,80.328 2.365,79.629 C3.143,78.93 4.168,78.535 5.372,78.641 C6.408,78.732 7.463,79.307 8.206,80.137 C8.949,80.967 9.379,82.053 9.166,83.166 C8.914,84.487 8.839,85.739 8.975,86.964 C9.111,88.19 9.457,89.389 10.046,90.603 C11.218,93.021 9.917,95.123 8.03,96.015 C6.144,96.908 3.67,96.59 2.497,94.17 Z"></path>
                            <path d="M9.971,25.432 C11.183,24.365 12.394,23.298 13.606,22.231 C14.818,21.164 16.029,20.097 17.241,19.03 C19.261,17.251 21.631,17.946 22.991,19.531 C24.352,21.115 24.703,23.588 22.687,25.363 C21.475,26.43 20.264,27.497 19.052,28.564 C17.84,29.631 16.629,30.698 15.417,31.765 C13.397,33.544 11.027,32.849 9.667,31.265 C8.307,29.681 7.955,27.207 9.971,25.432 Z"></path>
                            <path d="M83.295,19.026 L76.693,13.647 L70.091,8.268 C68.018,6.579 68.156,4.007 69.333,2.282 C70.51,0.557 72.726,-0.321 74.811,1.377 L81.413,6.756 L88.015,12.135 C90.088,13.824 89.95,16.396 88.773,18.121 C87.596,19.846 85.38,20.724 83.295,19.026 Z"></path>
                        </g>
                        <g transform="translate(55.000000, 0.000000)">
                            <path d="M76.037,76.38 C76.992,76.805 77.8,77.69 78.23,78.714 C78.66,79.739 78.713,80.904 78.157,81.892 C77.234,83.531 76.311,85.17 75.388,86.81 C74.465,88.449 73.542,90.088 72.619,91.728 C72.066,92.709 71.237,93.484 70.272,93.891 C69.307,94.298 68.205,94.337 67.107,93.848 C66.152,93.423 65.344,92.538 64.914,91.514 C64.484,90.489 64.431,89.324 64.987,88.336 C65.91,86.697 66.833,85.058 67.756,83.418 C68.679,81.779 69.602,80.14 70.525,78.5 C71.077,77.519 71.907,76.744 72.872,76.337 C73.837,75.931 74.939,75.891 76.037,76.38 Z"></path>
                            <path d="M12.169,0.366 C13.124,0.791 13.932,1.676 14.362,2.7 C14.792,3.725 14.845,4.89 14.289,5.878 C13.366,7.517 12.443,9.156 11.52,10.796 C10.597,12.435 9.674,14.074 8.751,15.714 C8.198,16.695 7.369,17.47 6.404,17.877 C5.439,18.284 4.337,18.323 3.239,17.834 C2.284,17.409 1.476,16.524 1.046,15.5 C0.616,14.475 0.563,13.31 1.119,12.322 C2.042,10.683 2.965,9.044 3.888,7.404 C4.811,5.764 5.734,4.126 6.657,2.486 C7.21,1.505 8.039,0.73 9.004,0.323 C9.969,-0.084 11.071,-0.124 12.169,0.366 Z"></path>
                            <path d="M101.882,113.6 C103.681,114.102 105.48,114.603 107.278,115.105 C109.077,115.607 110.876,116.108 112.674,116.61 C113.76,116.913 114.574,117.74 115.028,118.745 C115.481,119.749 115.574,120.931 115.216,121.941 C114.818,123.065 114.03,123.852 113.069,124.282 C112.108,124.712 110.975,124.786 109.885,124.482 C108.086,123.98 106.287,123.479 104.489,122.977 C102.69,122.475 100.891,121.974 99.093,121.472 C98.007,121.169 97.193,120.342 96.739,119.337 C96.286,118.333 96.193,117.151 96.551,116.141 C96.949,115.017 97.737,114.23 98.698,113.8 C99.658,113.37 100.792,113.296 101.882,113.6 Z"></path>
                            <path d="M136.545,56.715 C136.775,57.923 136.487,58.979 135.87,59.815 C135.253,60.651 134.308,61.268 133.225,61.599 C131.739,62.053 130.252,62.507 128.766,62.96 C127.28,63.414 125.793,63.868 124.307,64.321 C123.227,64.651 122.104,64.332 121.202,63.676 C120.3,63.019 119.619,62.025 119.424,61.002 C119.194,59.794 119.482,58.738 120.099,57.902 C120.716,57.066 121.661,56.449 122.744,56.118 C124.23,55.664 125.717,55.21 127.203,54.757 C128.689,54.304 130.176,53.849 131.662,53.396 C132.742,53.066 133.865,53.385 134.767,54.041 C135.669,54.698 136.35,55.692 136.545,56.715 Z"></path>
                            <path d="M74.792,204.326 C75.915,204.826 76.618,205.666 76.952,206.649 C77.287,207.633 77.254,208.761 76.907,209.839 C76.431,211.318 75.955,212.798 75.48,214.277 C75.004,215.756 74.528,217.236 74.053,218.715 C73.707,219.79 72.805,220.531 71.751,220.896 C70.697,221.262 69.492,221.253 68.541,220.83 C67.418,220.33 66.716,219.49 66.381,218.507 C66.046,217.523 66.079,216.395 66.426,215.317 C66.902,213.838 67.378,212.358 67.853,210.879 C68.329,209.4 68.805,207.92 69.28,206.441 C69.626,205.366 70.528,204.625 71.582,204.26 C72.636,203.893 73.841,203.902 74.792,204.326 Z"></path>
                            <path d="M78.896,22.522 C81.107,23.386 83.321,24.047 85.577,24.513 C87.833,24.979 90.128,25.251 92.499,25.338 C95.183,25.436 96.358,27.567 96.19,29.648 C96.022,31.729 94.512,33.762 91.826,33.663 C89.132,33.564 86.457,33.238 83.828,32.69 C81.199,32.142 78.616,31.375 76.106,30.393 C73.609,29.417 73.051,26.958 73.744,24.988 C74.438,23.019 76.384,21.539 78.896,22.522 Z"></path>
                            <path d="M153.249,94.304 C153.647,96.281 153.744,98.31 153.527,100.302 C153.31,102.294 152.776,104.25 151.911,106.078 C151.43,107.096 150.666,107.933 149.739,108.415 C148.811,108.897 147.719,109.023 146.58,108.619 C145.6,108.271 144.722,107.451 144.211,106.461 C143.7,105.471 143.554,104.312 144.039,103.288 C144.614,102.073 144.999,100.879 145.174,99.658 C145.349,98.437 145.313,97.19 145.047,95.866 C144.517,93.231 146.302,91.522 148.353,91.13 C150.403,90.74 152.719,91.667 153.249,94.304 Z"></path>
                            <path d="M130.931,162.273 C129.491,163.003 128.051,163.733 126.611,164.463 C125.171,165.193 123.731,165.923 122.291,166.652 C119.89,167.869 117.77,166.603 116.849,164.729 C115.928,162.855 116.206,160.373 118.603,159.159 C120.043,158.429 121.483,157.699 122.923,156.97 C124.363,156.24 125.803,155.51 127.243,154.78 C129.644,153.563 131.764,154.829 132.685,156.703 C133.606,158.577 133.327,161.059 130.931,162.273 Z"></path>
                            <path d="M68.014,148.284 L73.06,155.144 L78.106,162.004 C79.69,164.158 78.914,166.613 77.343,167.989 C75.772,169.365 73.406,169.66 71.813,167.495 L66.767,160.635 L61.721,153.775 C60.137,151.621 60.913,149.166 62.484,147.79 C64.055,146.414 66.421,146.119 68.014,148.284 Z"></path>
                        </g>
                    </g>
                    <path d="M399.013,226.112 C399.013,284.47 422.667,337.303 460.911,375.547 C499.155,413.791 551.988,437.445 610.346,437.445 C668.704,437.445 721.537,413.791 759.781,375.547 C798.025,337.303 821.679,284.47 821.679,226.112 C821.679,167.754 798.025,114.921 759.781,76.677 C721.537,38.433 668.704,14.779 610.346,14.779 C551.988,14.779 499.155,38.433 460.911,76.677 C422.667,114.921 399.013,167.754 399.013,226.112 Z" id="Path" fill="#94AB00"></path>
                    <g transform="translate(456.000000, 54.000000)" fill="#869E00" id="Path">
                        <g transform="translate(0.000000, 88.000000)">
                            <path d="M160.392,110.165 C158.796,109.603 157.377,108.281 156.549,106.683 C155.721,105.085 155.485,103.212 156.254,101.546 C157.53,98.781 158.806,96.016 160.082,93.251 C161.358,90.486 162.634,87.721 163.91,84.956 C164.674,83.301 165.911,81.943 167.416,81.161 C168.921,80.379 170.694,80.172 172.529,80.819 C174.125,81.381 175.544,82.703 176.372,84.3 C177.2,85.897 177.436,87.771 176.667,89.437 C175.391,92.202 174.115,94.967 172.839,97.732 C171.563,100.497 170.287,103.262 169.011,106.027 C168.247,107.682 167.01,109.04 165.505,109.822 C164,110.604 162.227,110.811 160.392,110.165 Z"></path>
                            <path d="M107.545,101.131 C104.897,102.59 102.25,104.048 99.602,105.507 C96.954,106.966 94.307,108.424 91.659,109.883 C90.061,110.764 88.182,110.73 86.519,110.083 C84.856,109.436 83.411,108.175 82.68,106.601 C81.867,104.851 81.885,103.048 82.508,101.462 C83.13,99.876 84.357,98.506 85.961,97.622 C88.609,96.163 91.256,94.705 93.904,93.246 C96.552,91.787 99.199,90.329 101.847,88.87 C103.445,87.989 105.324,88.023 106.987,88.67 C108.65,89.317 110.095,90.578 110.826,92.152 C111.639,93.902 111.621,95.705 110.998,97.291 C110.375,98.877 109.149,100.247 107.545,101.131 Z"></path>
                            <path d="M115.456,220.601 C113.821,219.466 112.958,217.919 112.723,216.254 C112.488,214.589 112.881,212.805 113.758,211.195 C114.962,208.986 116.165,206.777 117.369,204.568 C118.573,202.359 119.776,200.15 120.98,197.941 C121.855,196.336 123.514,195.431 125.301,195.167 C127.088,194.903 129.002,195.282 130.387,196.243 C132.022,197.378 132.885,198.925 133.12,200.59 C133.355,202.255 132.962,204.039 132.085,205.649 C130.881,207.858 129.678,210.067 128.474,212.276 C127.27,214.485 126.067,216.694 124.863,218.903 C123.988,220.508 122.329,221.413 120.542,221.677 C118.755,221.941 116.841,221.562 115.456,220.601 Z"></path>
                            <path d="M218.657,193.271 C215.123,194.777 211.814,196.524 208.679,198.541 C205.544,200.558 202.583,202.845 199.743,205.433 C196.529,208.361 192.757,207.23 190.592,204.635 C188.427,202.039 187.869,197.979 191.085,195.049 C194.311,192.11 197.773,189.456 201.431,187.109 C205.089,184.762 208.946,182.723 212.96,181.012 C216.952,179.311 220.385,181.52 221.815,184.582 C223.245,187.644 222.674,191.559 218.657,193.271 Z"></path>
                            <path d="M46.375,189.135 C43.675,187.301 41.262,185.066 39.256,182.517 C37.25,179.967 35.65,177.103 34.578,174.009 C33.981,172.287 33.914,170.454 34.44,168.846 C34.966,167.238 36.085,165.854 37.859,165.03 C39.386,164.321 41.33,164.274 43.043,164.838 C44.756,165.402 46.237,166.577 46.838,168.311 C47.551,170.367 48.459,172.183 49.64,173.792 C50.821,175.401 52.276,176.803 54.083,178.031 C57.682,180.476 57.555,184.475 55.629,187.252 C53.703,190.029 49.976,191.582 46.375,189.135 Z"></path>
                            <path d="M1.312,86.683 C2.149,84.207 2.986,81.732 3.824,79.256 C4.661,76.78 5.498,74.305 6.336,71.829 C7.732,67.701 11.618,66.762 14.806,67.884 C17.994,69.006 20.486,72.191 19.092,76.31 C18.255,78.786 17.418,81.261 16.58,83.737 C15.743,86.213 14.906,88.688 14.068,91.164 C12.672,95.292 8.786,96.231 5.598,95.109 C2.41,93.986 -0.081,90.802 1.312,86.683 Z"></path>
                            <path d="M98.981,18.445 L85.374,16.236 L71.767,14.027 C67.495,13.333 65.61,9.615 65.866,6.244 C66.123,2.873 68.522,-0.149 72.818,0.548 L86.425,2.757 L100.032,4.966 C104.304,5.66 106.189,9.378 105.932,12.749 C105.676,16.12 103.277,19.143 98.981,18.445 Z"></path>
                        </g>
                        <g transform="translate(19.000000, 0.000000)">
                            <path d="M157.737,86.596 C159.42,86.421 161.268,87.008 162.7,88.098 C164.132,89.188 165.147,90.78 165.166,92.615 C165.196,95.66 165.226,98.705 165.256,101.75 C165.286,104.795 165.316,107.84 165.347,110.885 C165.365,112.708 164.828,114.464 163.803,115.815 C162.778,117.166 161.264,118.112 159.328,118.313 C157.645,118.488 155.797,117.901 154.365,116.811 C152.933,115.721 151.918,114.129 151.899,112.294 C151.869,109.249 151.839,106.204 151.809,103.159 C151.779,100.114 151.749,97.069 151.719,94.024 C151.701,92.201 152.238,90.445 153.263,89.093 C154.288,87.741 155.802,86.798 157.737,86.596 Z"></path>
                            <path d="M6.727,31.588 C8.41,31.413 10.258,32 11.69,33.09 C13.122,34.18 14.137,35.772 14.156,37.607 C14.186,40.652 14.216,43.697 14.246,46.742 C14.276,49.787 14.306,52.832 14.337,55.877 C14.355,57.7 13.818,59.456 12.793,60.807 C11.768,62.158 10.254,63.104 8.318,63.305 C6.635,63.48 4.787,62.893 3.355,61.803 C1.923,60.713 0.908,59.121 0.889,57.286 C0.859,54.241 0.829,51.196 0.799,48.151 C0.769,45.106 0.739,42.061 0.709,39.016 C0.691,37.193 1.228,35.437 2.253,34.085 C3.278,32.733 4.792,31.789 6.727,31.588 Z"></path>
                            <path d="M224.064,117.917 C226.992,117.167 229.921,116.417 232.849,115.667 C235.777,114.917 238.706,114.167 241.634,113.417 C243.402,112.964 245.213,113.467 246.66,114.509 C248.108,115.551 249.192,117.133 249.506,118.84 C249.855,120.738 249.386,122.479 248.387,123.859 C247.387,125.239 245.857,126.258 244.083,126.713 C241.155,127.463 238.226,128.213 235.298,128.963 C232.37,129.713 229.441,130.463 226.513,131.213 C224.745,131.666 222.934,131.163 221.487,130.121 C220.039,129.079 218.955,127.497 218.641,125.79 C218.292,123.892 218.761,122.151 219.76,120.771 C220.759,119.39 222.289,118.371 224.064,117.917 Z"></path>
                            <path d="M226.715,10.117 C228.014,11.625 228.463,13.339 228.274,15.01 C228.085,16.681 227.258,18.31 226.006,19.649 C224.288,21.487 222.57,23.324 220.852,25.162 C219.134,27 217.416,28.837 215.698,30.675 C214.45,32.01 212.617,32.471 210.821,32.279 C209.025,32.087 207.266,31.242 206.166,29.965 C204.867,28.457 204.418,26.743 204.607,25.072 C204.796,23.401 205.623,21.772 206.875,20.433 C208.593,18.595 210.311,16.758 212.029,14.92 C213.747,13.082 215.465,11.245 217.183,9.407 C218.431,8.072 220.264,7.611 222.06,7.803 C223.856,7.995 225.615,8.84 226.715,10.117 Z"></path>
                            <path d="M259.382,267.061 C261.362,266.855 263.025,267.465 264.289,268.574 C265.553,269.683 266.419,271.292 266.803,273.084 C267.331,275.544 267.859,278.003 268.388,280.463 C268.916,282.923 269.444,285.382 269.972,287.842 C270.356,289.629 269.688,291.397 268.505,292.762 C267.322,294.127 265.625,295.089 263.948,295.263 C261.968,295.469 260.305,294.859 259.041,293.75 C257.777,292.641 256.912,291.032 256.527,289.24 C255.999,286.78 255.471,284.321 254.943,281.861 C254.415,279.401 253.887,276.942 253.358,274.482 C252.974,272.695 253.642,270.927 254.825,269.562 C256.008,268.198 257.705,267.236 259.382,267.061 Z"></path>
                            <path d="M118.224,8.742 C122.023,8.168 125.663,7.305 129.203,6.136 C132.743,4.967 136.182,3.494 139.579,1.7 C143.423,-0.331 146.793,1.708 148.239,4.763 C149.686,7.818 149.21,11.889 145.363,13.921 C141.504,15.96 137.489,17.663 133.359,19.02 C129.229,20.377 124.986,21.386 120.671,22.039 C116.38,22.687 113.61,19.69 112.991,16.367 C112.374,13.043 113.907,9.395 118.224,8.742 Z"></path>
                            <path d="M280.52,49.342 C282.675,51.793 284.452,54.561 285.756,57.531 C287.06,60.501 287.892,63.675 288.157,66.939 C288.304,68.755 287.91,70.547 286.999,71.972 C286.088,73.397 284.658,74.457 282.734,74.811 C281.078,75.116 279.184,74.674 277.667,73.699 C276.15,72.724 275.01,71.216 274.862,69.387 C274.686,67.218 274.262,65.232 273.521,63.379 C272.78,61.526 271.722,59.804 270.279,58.163 C267.406,54.896 268.529,51.055 271.089,48.849 C273.648,46.644 277.645,46.072 280.52,49.342 Z"></path>
                            <path d="M304.141,162.712 C302.711,164.899 301.281,167.087 299.851,169.274 C298.421,171.461 296.991,173.649 295.561,175.836 C293.176,179.483 289.179,179.421 286.373,177.536 C283.567,175.651 281.952,171.945 284.331,168.306 C285.761,166.119 287.191,163.931 288.621,161.744 C290.051,159.557 291.481,157.369 292.911,155.182 C295.295,151.535 299.293,151.597 302.099,153.482 C304.905,155.366 306.521,159.072 304.141,162.712 Z"></path>
                            <path d="M204.588,193.934 L217.209,199.478 L229.83,205.022 C233.793,206.763 234.688,210.834 233.596,214.034 C232.504,217.233 229.425,219.56 225.44,217.809 L212.819,212.265 L200.198,206.721 C196.235,204.98 195.34,200.909 196.432,197.709 C197.524,194.51 200.603,192.184 204.588,193.934 Z"></path>
                        </g>
                    </g>
                    <path d="M84.101,408.556 C84.101,460.514 105.161,507.553 139.211,541.602 C173.261,575.652 220.3,596.712 272.257,596.712 C324.214,596.712 371.254,575.652 405.303,541.602 C439.353,507.553 460.413,460.513 460.413,408.556 C460.413,356.599 439.353,309.559 405.303,275.51 C371.253,241.461 324.214,220.4 272.257,220.4 C220.3,220.4 173.26,241.46 139.211,275.51 C105.162,309.56 84.101,356.598 84.101,408.556 Z" id="Path" fill="#94AB00"></path>
                    <g transform="translate(115.000000, 281.000000)" fill="#869E00" id="Path">
                        <g transform="translate(107.000000, 13.000000)">
                            <path d="M43.09,91.664 C44.398,92.402 45.434,93.775 45.91,95.299 C46.387,96.823 46.304,98.496 45.375,99.834 C43.833,102.053 42.291,104.272 40.75,106.491 C39.208,108.71 37.667,110.929 36.125,113.148 C35.202,114.476 33.912,115.472 32.476,115.923 C31.04,116.374 29.459,116.281 27.955,115.433 C26.647,114.695 25.611,113.322 25.135,111.798 C24.658,110.274 24.741,108.601 25.67,107.264 C27.212,105.045 28.753,102.826 30.295,100.607 C31.837,98.388 33.378,96.169 34.92,93.95 C35.843,92.621 37.133,91.626 38.569,91.175 C40.005,90.724 41.586,90.816 43.09,91.664 Z"></path>
                            <path d="M87.873,107.715 C90.412,106.849 92.95,105.983 95.489,105.117 C98.028,104.251 100.566,103.385 103.105,102.519 C104.637,101.996 106.274,102.315 107.627,103.137 C108.98,103.959 110.048,105.284 110.444,106.772 C110.884,108.427 110.59,109.999 109.801,111.289 C109.012,112.579 107.729,113.586 106.191,114.111 C103.652,114.977 101.114,115.843 98.575,116.709 C96.036,117.575 93.498,118.441 90.959,119.307 C89.427,119.83 87.79,119.511 86.437,118.689 C85.084,117.867 84.016,116.542 83.62,115.054 C83.18,113.399 83.474,111.827 84.263,110.537 C85.052,109.248 86.335,108.24 87.873,107.715 Z"></path>
                            <path d="M99.401,2.102 C100.655,3.346 101.17,4.831 101.118,6.322 C101.066,7.813 100.447,9.312 99.432,10.583 C98.039,12.327 96.647,14.072 95.254,15.816 C93.861,17.56 92.469,19.305 91.076,21.049 C90.064,22.317 88.474,22.851 86.873,22.806 C85.271,22.76 83.657,22.135 82.595,21.081 C81.341,19.837 80.826,18.352 80.878,16.861 C80.93,15.37 81.549,13.871 82.564,12.6 C83.957,10.856 85.349,9.111 86.742,7.367 C88.135,5.623 89.527,3.878 90.92,2.134 C91.932,0.867 93.522,0.332 95.124,0.377 C96.725,0.423 98.339,1.049 99.401,2.102 Z"></path>
                            <path d="M5.006,10.053 C8.327,9.282 11.488,8.267 14.538,6.989 C17.588,5.711 20.529,4.169 23.41,2.347 C26.67,0.284 29.792,1.855 31.283,4.457 C32.774,7.059 32.635,10.693 29.372,12.757 C26.1,14.828 22.665,16.612 19.106,18.098 C15.547,19.584 11.863,20.771 8.091,21.646 C4.34,22.516 1.682,20.056 0.904,17.159 C0.128,14.262 1.232,10.929 5.006,10.053 Z"></path>
                            <path d="M154.907,40.259 C156.983,42.278 158.746,44.603 160.106,47.141 C161.465,49.679 162.421,52.429 162.881,55.298 C163.137,56.895 162.912,58.507 162.204,59.831 C161.496,61.155 160.305,62.192 158.627,62.638 C157.183,63.022 155.477,62.763 154.068,62.005 C152.659,61.248 151.546,59.992 151.288,58.385 C150.982,56.478 150.47,54.751 149.686,53.163 C148.902,51.575 147.847,50.125 146.458,48.773 C143.691,46.081 144.418,42.606 146.53,40.477 C148.642,38.348 152.137,37.566 154.907,40.259 Z"></path>
                            <path d="M178.468,136.738 C177.354,138.772 176.241,140.806 175.127,142.84 C174.013,144.874 172.9,146.908 171.786,148.942 C169.929,152.334 166.389,152.554 163.776,151.082 C161.163,149.609 159.478,146.442 161.331,143.058 C162.445,141.024 163.558,138.99 164.672,136.956 C165.786,134.922 166.899,132.888 168.013,130.854 C169.87,127.462 173.41,127.241 176.023,128.714 C178.636,130.186 180.321,133.353 178.468,136.738 Z"></path>
                            <path d="M82.593,181.287 L94.142,185.318 L105.691,189.349 C109.317,190.615 110.39,194.155 109.646,197.06 C108.901,199.966 106.338,202.237 102.692,200.964 L91.143,196.933 L79.594,192.902 C75.968,191.636 74.895,188.096 75.64,185.191 C76.384,182.286 78.947,180.015 82.593,181.287 Z"></path>
                        </g>
                        <g>
                            <path d="M118.586,199.629 C117.088,199.522 115.564,198.724 114.481,197.551 C113.398,196.378 112.756,194.83 113.024,193.224 C113.468,190.559 113.911,187.893 114.355,185.228 C114.799,182.563 115.242,179.897 115.686,177.232 C115.952,175.636 116.692,174.184 117.796,173.162 C118.9,172.14 120.369,171.547 122.091,171.67 C123.589,171.777 125.113,172.575 126.196,173.748 C127.279,174.921 127.921,176.469 127.653,178.075 C127.209,180.74 126.766,183.406 126.322,186.071 C125.878,188.736 125.435,191.402 124.991,194.067 C124.725,195.663 123.985,197.115 122.881,198.137 C121.777,199.159 120.309,199.752 118.586,199.629 Z"></path>
                            <path d="M242.047,271.004 C240.549,270.897 239.025,270.099 237.942,268.926 C236.859,267.753 236.217,266.205 236.485,264.599 C236.929,261.934 237.372,259.268 237.816,256.603 C238.26,253.938 238.703,251.272 239.147,248.607 C239.413,247.011 240.153,245.559 241.257,244.537 C242.361,243.515 243.83,242.922 245.552,243.045 C247.05,243.152 248.574,243.95 249.657,245.123 C250.74,246.296 251.382,247.844 251.114,249.45 C250.67,252.115 250.227,254.781 249.783,257.446 C249.339,260.111 248.896,262.777 248.452,265.442 C248.186,267.038 247.446,268.49 246.342,269.512 C245.238,270.535 243.769,271.127 242.047,271.004 Z"></path>
                            <path d="M65.465,162.024 C62.79,162.227 60.116,162.43 57.441,162.634 C54.766,162.837 52.092,163.04 49.417,163.244 C47.803,163.367 46.298,162.648 45.193,161.514 C44.089,160.38 43.386,158.83 43.375,157.29 C43.363,155.578 44.041,154.129 45.128,153.077 C46.214,152.025 47.709,151.371 49.329,151.248 C52.004,151.045 54.678,150.842 57.353,150.638 C60.028,150.435 62.702,150.232 65.377,150.028 C66.991,149.905 68.496,150.624 69.601,151.758 C70.705,152.892 71.408,154.442 71.419,155.982 C71.431,157.694 70.753,159.143 69.666,160.195 C68.58,161.246 67.086,161.901 65.465,162.024 Z"></path>
                            <path d="M46.509,255.809 C45.607,254.291 45.479,252.724 45.902,251.293 C46.325,249.862 47.299,248.566 48.6,247.59 C50.385,246.249 52.17,244.909 53.954,243.569 C55.738,242.229 57.524,240.888 59.309,239.548 C60.606,238.574 62.279,238.454 63.818,238.899 C65.357,239.344 66.764,240.354 67.528,241.639 C68.43,243.157 68.558,244.724 68.135,246.155 C67.712,247.586 66.738,248.882 65.437,249.858 C63.652,251.198 61.867,252.539 60.082,253.879 C58.297,255.219 56.512,256.56 54.728,257.9 C53.431,258.874 51.758,258.994 50.219,258.549 C48.679,258.104 47.273,257.094 46.509,255.809 Z"></path>
                            <path d="M57.626,26.251 C55.864,26.125 54.505,25.336 53.572,24.172 C52.639,23.008 52.131,21.468 52.071,19.843 C51.989,17.612 51.907,15.382 51.825,13.151 C51.743,10.92 51.661,8.69 51.58,6.459 C51.52,4.838 52.377,3.396 53.621,2.386 C54.865,1.376 56.497,0.797 57.989,0.904 C59.751,1.03 61.11,1.819 62.043,2.984 C62.976,4.148 63.484,5.688 63.544,7.313 C63.626,9.544 63.708,11.774 63.79,14.005 C63.872,16.236 63.954,18.466 64.036,20.697 C64.095,22.318 63.239,23.76 61.995,24.77 C60.749,25.779 59.117,26.357 57.626,26.251 Z"></path>
                            <path d="M141.095,273.756 C137.687,273.671 134.373,273.864 131.099,274.338 C127.825,274.812 124.593,275.569 121.347,276.613 C117.675,277.794 115.045,275.493 114.252,272.6 C113.459,269.707 114.504,266.224 118.179,265.042 C121.865,263.856 125.637,262.988 129.455,262.44 C133.273,261.892 137.137,261.665 141.007,261.761 C144.856,261.857 146.815,264.904 146.843,267.903 C146.871,270.901 144.969,273.853 141.095,273.756 Z"></path>
                            <path d="M5.55,213.23 C4.045,210.756 2.92,208.063 2.238,205.266 C1.557,202.469 1.32,199.567 1.592,196.675 C1.744,195.065 2.364,193.561 3.381,192.456 C4.398,191.351 5.81,190.646 7.546,190.633 C9.04,190.623 10.627,191.3 11.802,192.386 C12.977,193.472 13.741,194.966 13.588,196.587 C13.407,198.51 13.471,200.31 13.833,202.044 C14.194,203.778 14.853,205.445 15.86,207.102 C17.866,210.4 16.292,213.583 13.714,215.116 C11.137,216.648 7.557,216.531 5.55,213.23 Z"></path>
                            <path d="M2.409,110.521 C3.996,108.83 5.583,107.14 7.17,105.449 C8.757,103.758 10.344,102.068 11.931,100.377 C14.578,97.558 18.061,98.23 20.222,100.31 C22.383,102.39 23.222,105.878 20.581,108.691 C18.994,110.382 17.407,112.072 15.82,113.763 C14.233,115.454 12.646,117.144 11.059,118.835 C8.412,121.654 4.929,120.982 2.768,118.902 C0.607,116.822 -0.232,113.334 2.409,110.521 Z"></path>
                            <path d="M94.217,98.607 L84.044,91.815 L73.871,85.023 C70.677,82.89 70.524,79.194 71.972,76.568 C73.42,73.942 76.47,72.384 79.681,74.528 L89.854,81.32 L100.027,88.112 C103.221,90.245 103.374,93.941 101.926,96.567 C100.478,99.193 97.428,100.751 94.217,98.607 Z"></path>
                        </g>
                    </g>
                    <path d="M771.912,376.796 L741.97,436.005 L712.028,495.214 C709.466,500.279 705.589,504.409 700.933,507.272 C696.277,510.135 690.842,511.732 685.166,511.732 L607.244,511.732 L529.322,511.732 L529.322,455.311 L529.322,398.89 L473.691,398.89 L418.06,398.89 L418.06,491.412 L418.06,583.934 L404.53,577.689 L391,571.444 C357.037,555.769 329.181,530.935 309.815,500.668 C290.449,470.401 279.575,434.702 279.575,397.296 L279.575,384.087 L279.575,370.878 L260.045,370.878 L240.515,370.878 L240.515,384.98 L240.515,399.082 C240.515,443.677 253.239,486.316 275.987,522.686 C298.735,559.056 331.508,589.155 371.606,608.67 L381.013,613.248 L390.42,617.826 C398.875,621.941 405.785,628.288 410.582,635.956 C415.379,643.625 418.061,652.616 418.061,662.019 L418.061,758.194 L418.061,854.369 C418.061,897.74 409.387,940.211 393.004,979.464 C376.622,1018.717 352.531,1054.754 321.7,1085.257 L314.25,1092.628 L306.8,1099.999 L447.061,1099.999 L587.32,1099.999 L579.505,1085.997 L571.69,1071.995 C558.187,1047.801 547.89,1022.082 540.97,995.483 C534.05,968.885 530.505,941.408 530.505,913.701 L530.505,788.412 L530.505,663.121 L550.721,663.121 L570.937,663.121 C581.762,663.121 592.12,660.054 600.975,654.563 C609.83,649.072 617.181,641.157 621.993,631.46 L642.596,589.942 L663.199,548.424 L674.157,548.424 L685.115,548.424 C697.56,548.424 709.468,544.898 719.648,538.586 C729.828,532.274 738.279,523.174 743.811,512.026 L773.84,451.513 L803.871,391 L787.892,383.898 L771.912,376.796 Z M594.347,616.837 C592.119,621.243 588.746,624.835 584.696,627.325 C580.646,629.815 575.919,631.204 570.981,631.204 L550.743,631.204 L530.505,631.204 L530.505,604.018 L530.505,576.832 C530.505,568.988 533.685,561.886 538.825,556.745 C543.966,551.604 551.068,548.425 558.912,548.425 L592.894,548.425 L626.876,548.425 L610.611,582.631 L594.347,616.837 Z" id="Shape" fill="#5C232F" fill-rule="nonzero"></path>
                    <path d="M186.816,338.813 C185.885,353.964 185.895,369.262 188.101,384.126 C190.306,398.991 194.706,413.422 202.553,426.841 C210.017,439.605 219.933,450.202 231.683,457.912 C243.433,465.622 257.018,470.447 271.821,471.666 C280.662,472.394 283.655,479.521 282.246,486.286 C280.838,493.051 275.029,499.453 266.265,498.731 C248.989,497.308 232.611,491.407 218.219,482.255 C203.827,473.103 191.421,460.7 182.09,446.274 C171.869,430.471 165.591,413.269 162.151,395.415 C158.711,377.561 158.11,359.057 159.242,340.65 C159.781,331.884 166.947,326.999 173.842,326.518 C180.736,326.038 187.36,329.961 186.816,338.813 Z" id="Path" fill="#301D21"></path>
                    <path d="M240.513,370.878 L260.043,370.878 L279.573,370.878 L279.573,384.087 L279.573,397.296 C279.573,414.229 281.808,430.808 286.05,446.692 C290.292,462.576 296.541,477.764 304.57,491.915 C299.398,496.274 294.189,500.608 288.935,504.922 C283.68,509.236 278.38,513.53 273.027,517.81 C262.584,500.17 254.456,481.142 248.938,461.198 C243.42,441.254 240.513,420.392 240.513,399.083 L240.513,384.98 L240.513,370.878 Z" id="Path" fill="#301D21"></path>
                    <polygon id="Path" fill="#301D21" points="529.322 511.731 473.69 547.832 418.059 583.933 418.059 491.412 418.059 398.89 473.69 398.89 529.322 398.89 529.322 455.311"></polygon>
                    <path d="M103.433,268.949 C103.433,319.026 123.731,364.363 156.548,397.18 C189.365,429.997 234.702,450.295 284.779,450.295 C334.856,450.295 380.193,429.997 413.01,397.18 C445.827,364.363 466.125,319.026 466.125,268.949 C466.125,218.872 445.827,173.535 413.01,140.718 C380.193,107.901 334.856,87.603 284.779,87.603 C234.702,87.603 189.365,107.901 156.548,140.718 C123.731,173.535 103.433,218.872 103.433,268.949 Z" id="Path" fill="#C9C832"></path>
                    <g transform="translate(120.000000, 108.000000)" fill="#A5AF00" id="Path">
                        <g transform="translate(57.000000, 136.000000)">
                            <path d="M126.748,40.749 C125.354,41.215 123.677,41.066 122.257,40.412 C120.838,39.758 119.676,38.6 119.315,37.048 C118.715,34.472 118.115,31.897 117.515,29.321 C116.915,26.745 116.315,24.17 115.715,21.594 C115.356,20.052 115.479,18.462 116.094,17.123 C116.708,15.784 117.813,14.697 119.416,14.161 C120.81,13.695 122.487,13.844 123.906,14.498 C125.325,15.152 126.487,16.31 126.848,17.862 C127.448,20.438 128.048,23.013 128.648,25.589 C129.248,28.165 129.848,30.74 130.448,33.316 C130.807,34.858 130.684,36.448 130.07,37.787 C129.456,39.125 128.351,40.213 126.748,40.749 Z"></path>
                            <path d="M85.709,62.742 C84.672,65.154 83.636,67.566 82.599,69.978 C81.562,72.39 80.526,74.802 79.489,77.214 C78.863,78.67 77.558,79.649 76.073,80.093 C74.589,80.536 72.925,80.443 71.585,79.754 C70.094,78.988 69.145,77.743 68.726,76.323 C68.307,74.903 68.417,73.311 69.045,71.85 C70.082,69.438 71.118,67.026 72.155,64.614 C73.192,62.202 74.228,59.79 75.265,57.378 C75.891,55.922 77.196,54.943 78.681,54.499 C80.165,54.056 81.829,54.149 83.169,54.838 C84.66,55.604 85.609,56.849 86.028,58.269 C86.447,59.689 86.337,61.281 85.709,62.742 Z"></path>
                            <path d="M154.85,140.405 C153.124,140.499 151.707,139.899 150.658,138.883 C149.609,137.867 148.927,136.435 148.669,134.863 C148.316,132.707 147.963,130.551 147.609,128.395 C147.255,126.239 146.903,124.083 146.55,121.927 C146.293,120.361 146.948,118.855 148.032,117.722 C149.116,116.589 150.63,115.827 152.091,115.747 C153.817,115.653 155.234,116.253 156.283,117.269 C157.332,118.285 158.014,119.717 158.272,121.289 C158.625,123.445 158.978,125.601 159.331,127.757 C159.684,129.913 160.037,132.069 160.391,134.225 C160.648,135.792 159.993,137.297 158.909,138.43 C157.825,139.564 156.312,140.325 154.85,140.405 Z"></path>
                            <path d="M211.006,66.633 C209.387,69.55 208.051,72.512 206.978,75.567 C205.905,78.621 205.095,81.768 204.529,85.056 C203.888,88.777 200.699,90.014 197.831,89.39 C194.963,88.766 192.415,86.28 193.056,82.557 C193.699,78.822 194.656,75.157 195.913,71.597 C197.17,68.037 198.724,64.583 200.563,61.269 C202.392,57.974 205.923,57.657 208.536,58.993 C211.149,60.329 212.846,63.317 211.006,66.633 Z"></path>
                            <path d="M90.721,155.683 C87.892,155.866 85.047,155.621 82.312,154.944 C79.577,154.266 76.953,153.156 74.568,151.608 C73.24,150.746 72.217,149.526 71.72,148.143 C71.223,146.76 71.252,145.215 72.028,143.704 C72.696,142.404 74.004,141.335 75.479,140.808 C76.954,140.281 78.596,140.296 79.932,141.164 C81.517,142.193 83.108,142.954 84.776,143.426 C86.444,143.899 88.189,144.084 90.082,143.961 C93.852,143.717 95.899,146.526 96.059,149.456 C96.219,152.386 94.495,155.439 90.721,155.683 Z"></path>
                            <path d="M5.194,109.498 C4.448,107.355 3.701,105.212 2.954,103.068 C2.208,100.925 1.461,98.782 0.715,96.638 C-0.53,93.064 1.632,90.348 4.416,89.417 C7.2,88.486 10.606,89.34 11.848,92.906 C12.594,95.049 13.341,97.192 14.087,99.336 C14.833,101.479 15.58,103.622 16.326,105.766 C17.571,109.34 15.409,112.056 12.625,112.987 C9.842,113.918 6.436,113.064 5.194,109.498 Z"></path>
                            <path d="M35.741,10.638 L25.237,16.381 L14.733,22.124 C11.435,23.927 8.16,22.384 6.538,19.937 C4.916,17.49 4.948,14.139 8.265,12.325 L18.769,6.582 L29.273,0.839 C32.571,-0.964 35.846,0.579 37.468,3.026 C39.089,5.474 39.057,8.825 35.741,10.638 Z"></path>
                        </g>
                        <g>
                            <path d="M135.447,91.564 C136.507,90.546 138.087,89.963 139.65,89.946 C141.213,89.929 142.758,90.479 143.749,91.727 C145.394,93.798 147.038,95.869 148.683,97.94 C150.328,100.011 151.972,102.082 153.617,104.153 C154.602,105.393 155.17,106.883 155.188,108.356 C155.206,109.829 154.673,111.284 153.454,112.455 C152.394,113.473 150.814,114.056 149.251,114.073 C147.689,114.09 146.143,113.54 145.152,112.292 C143.507,110.221 141.863,108.15 140.218,106.079 C138.573,104.008 136.929,101.937 135.284,99.866 C134.299,98.626 133.73,97.136 133.713,95.663 C133.695,94.189 134.228,92.734 135.447,91.564 Z"></path>
                            <path d="M2.609,134.401 C3.669,133.383 5.249,132.8 6.812,132.783 C8.375,132.766 9.92,133.316 10.911,134.564 C12.556,136.635 14.2,138.706 15.845,140.777 C17.49,142.848 19.134,144.919 20.779,146.99 C21.764,148.23 22.332,149.72 22.35,151.193 C22.368,152.666 21.835,154.121 20.615,155.292 C19.555,156.31 17.975,156.893 16.412,156.91 C14.85,156.927 13.304,156.377 12.313,155.129 C10.668,153.058 9.024,150.987 7.379,148.916 C5.734,146.845 4.09,144.774 2.445,142.703 C1.46,141.463 0.891,139.973 0.874,138.5 C0.857,137.027 1.39,135.572 2.609,134.401 Z"></path>
                            <path d="M197.611,77.656 C199.218,75.58 200.825,73.504 202.433,71.429 C204.04,69.353 205.647,67.277 207.255,65.202 C208.225,63.949 209.734,63.327 211.282,63.27 C212.83,63.212 214.417,63.718 215.543,64.721 C216.794,65.836 217.402,67.279 217.453,68.758 C217.504,70.237 216.999,71.752 216.025,73.009 C214.418,75.085 212.811,77.161 211.203,79.236 C209.596,81.312 207.989,83.388 206.381,85.463 C205.411,86.716 203.902,87.338 202.354,87.395 C200.806,87.453 199.219,86.947 198.093,85.944 C196.841,84.829 196.234,83.386 196.183,81.907 C196.132,80.428 196.637,78.913 197.611,77.656 Z"></path>
                            <path d="M141.934,2.358 C143.629,2.699 144.85,3.634 145.612,4.88 C146.374,6.126 146.675,7.684 146.532,9.269 C146.335,11.445 146.137,13.62 145.94,15.796 C145.743,17.972 145.545,20.147 145.348,22.323 C145.205,23.904 144.194,25.197 142.861,26.024 C141.528,26.85 139.872,27.209 138.437,26.921 C136.742,26.58 135.521,25.645 134.759,24.399 C133.997,23.153 133.696,21.595 133.839,20.01 C134.037,17.834 134.234,15.659 134.431,13.483 C134.628,11.307 134.826,9.132 135.023,6.956 C135.167,5.375 136.177,4.081 137.51,3.255 C138.843,2.429 140.499,2.069 141.934,2.358 Z"></path>
                            <path d="M301.362,161.04 C302.609,159.843 304.074,159.374 305.532,159.46 C306.99,159.546 308.441,160.187 309.661,161.21 C311.335,162.614 313.009,164.018 314.682,165.422 C316.355,166.826 318.029,168.23 319.703,169.634 C320.919,170.654 321.405,172.222 321.322,173.789 C321.239,175.355 320.589,176.92 319.533,177.934 C318.286,179.131 316.821,179.6 315.363,179.514 C313.905,179.428 312.454,178.787 311.234,177.764 C309.56,176.36 307.887,174.956 306.213,173.552 C304.539,172.148 302.866,170.744 301.192,169.34 C299.976,168.32 299.49,166.752 299.573,165.185 C299.655,163.619 300.306,162.054 301.362,161.04 Z"></path>
                            <path d="M66.843,59.278 C69.14,56.858 71.175,54.325 72.978,51.636 C74.781,48.947 76.353,46.103 77.724,43.061 C79.275,39.619 82.672,39.219 85.293,40.541 C87.914,41.863 89.759,44.907 88.206,48.352 C86.649,51.807 84.805,55.116 82.698,58.249 C80.591,61.381 78.221,64.337 75.612,67.085 C73.017,69.818 69.519,69.241 67.323,67.294 C65.127,65.346 64.232,62.028 66.843,59.278 Z"></path>
                            <path d="M199.731,0.546 C202.515,1.077 205.209,2.026 207.688,3.366 C210.166,4.706 212.429,6.438 214.351,8.534 C215.421,9.7 216.106,11.138 216.241,12.602 C216.376,14.066 215.962,15.554 214.832,16.823 C213.86,17.915 212.326,18.622 210.766,18.764 C209.206,18.905 207.621,18.479 206.543,17.305 C205.266,15.912 203.916,14.778 202.419,13.903 C200.923,13.028 199.28,12.412 197.416,12.057 C193.705,11.35 192.426,8.118 193.004,5.241 C193.582,2.361 196.017,-0.162 199.731,0.546 Z"></path>
                            <path d="M276.385,65.649 C276.572,67.911 276.758,70.173 276.945,72.434 C277.132,74.695 277.318,76.958 277.504,79.219 C277.815,82.991 275.042,85.079 272.114,85.284 C269.186,85.489 266.102,83.81 265.792,80.047 C265.606,77.785 265.419,75.523 265.233,73.262 C265.047,71.001 264.86,68.738 264.673,66.477 C264.362,62.705 267.135,60.617 270.063,60.412 C272.991,60.207 276.075,61.886 276.385,65.649 Z"></path>
                            <path d="M224.805,140.144 L236.412,137.212 L248.019,134.28 C251.663,133.359 254.448,135.673 255.406,138.448 C256.364,141.223 255.494,144.46 251.83,145.385 L240.223,148.317 L228.616,151.249 C224.972,152.17 222.187,149.856 221.229,147.081 C220.271,144.306 221.141,141.069 224.805,140.144 Z"></path>
                        </g>
                    </g>
                    <path d="M626.876,281.836 C626.876,327.97 645.576,369.737 675.809,399.97 C706.042,430.203 747.809,448.903 793.943,448.903 C840.077,448.903 881.844,430.203 912.077,399.97 C942.31,369.737 961.01,327.97 961.01,281.836 C961.01,235.702 942.31,193.935 912.077,163.702 C881.844,133.469 840.077,114.769 793.943,114.769 C747.809,114.769 706.042,133.469 675.809,163.702 C645.576,193.935 626.876,235.702 626.876,281.836 Z" id="Path" fill="#C9C832"></path>
                    <path d="M280.495,315.357 C280.495,367.406 301.592,414.527 335.701,448.637 C369.81,482.747 416.932,503.843 468.981,503.843 C521.03,503.843 568.151,482.746 602.261,448.637 C636.37,414.528 657.467,367.406 657.467,315.357 C657.467,263.308 636.37,216.187 602.261,182.077 C568.152,147.968 521.03,126.871 468.981,126.871 C416.932,126.871 369.811,147.968 335.701,182.077 C301.591,216.186 280.495,263.308 280.495,315.357 Z" id="Path" fill="#A5AF00"></path>
                    <path d="M390.888,618.076 C409.476,618.076 426.304,625.61 438.485,637.791 C450.666,649.972 458.2,666.8 458.2,685.388 L458.2,892.694 L458.2,1100 L382.499,1100 L306.798,1100 L314.248,1092.629 L321.698,1085.258 C352.53,1054.754 376.62,1018.718 393.002,979.464 C409.384,940.211 418.059,897.74 418.059,854.369 L418.059,758.195 L418.059,662.02 C418.059,652.706 415.424,643.8 410.711,636.182 C405.997,628.564 399.204,622.235 390.888,618.076 Z" id="Path" fill="#301D21"></path>
                    <g transform="translate(309.000000, 159.000000)" fill="#C9C832" id="Path">
                        <g transform="translate(55.000000, 0.000000)">
                            <path d="M86.693,117.007 C88.151,116.606 89.865,116.854 91.287,117.604 C92.708,118.355 93.836,119.609 94.121,121.224 C94.593,123.903 95.065,126.583 95.538,129.262 C96.01,131.941 96.482,134.621 96.955,137.3 C97.238,138.904 97.022,140.531 96.316,141.871 C95.61,143.212 94.414,144.267 92.738,144.727 C91.28,145.128 89.566,144.88 88.144,144.13 C86.723,143.379 85.595,142.125 85.31,140.51 C84.838,137.831 84.366,135.151 83.893,132.472 C83.421,129.793 82.949,127.113 82.477,124.434 C82.194,122.83 82.41,121.203 83.116,119.863 C83.821,118.522 85.016,117.467 86.693,117.007 Z"></path>
                            <path d="M130.08,96.713 C131.28,94.294 132.48,91.874 133.68,89.455 C134.88,87.036 136.08,84.616 137.28,82.197 C138.004,80.737 139.4,79.804 140.95,79.431 C142.5,79.059 144.203,79.247 145.541,80.03 C147.029,80.9 147.934,82.233 148.286,83.714 C148.637,85.195 148.435,86.825 147.708,88.291 C146.508,90.71 145.308,93.13 144.108,95.549 C142.908,97.968 141.708,100.388 140.508,102.807 C139.784,104.267 138.388,105.2 136.838,105.573 C135.288,105.945 133.585,105.756 132.247,104.974 C130.759,104.104 129.854,102.771 129.502,101.29 C129.15,99.809 129.353,98.179 130.08,96.713 Z"></path>
                            <path d="M63.407,13.064 C65.186,13.064 66.607,13.759 67.628,14.862 C68.649,15.964 69.269,17.474 69.446,19.102 C69.688,21.336 69.93,23.571 70.172,25.805 C70.414,28.039 70.656,30.274 70.898,32.508 C71.074,34.132 70.317,35.641 69.14,36.745 C67.963,37.849 66.365,38.546 64.86,38.546 C63.081,38.546 61.66,37.851 60.639,36.748 C59.618,35.645 58.998,34.136 58.821,32.508 C58.579,30.274 58.337,28.039 58.095,25.805 C57.853,23.571 57.611,21.336 57.369,19.102 C57.193,17.478 57.95,15.969 59.127,14.865 C60.304,13.761 61.902,13.064 63.407,13.064 Z"></path>
                            <path d="M1.591,85.699 C3.418,82.793 4.956,79.825 6.229,76.748 C7.502,73.671 8.51,70.483 9.276,67.137 C10.143,63.351 13.488,62.259 16.399,63.061 C19.31,63.863 21.788,66.559 20.921,70.348 C20.051,74.149 18.863,77.86 17.373,81.446 C15.883,85.032 14.093,88.493 12.018,91.794 C9.955,95.076 6.31,95.204 3.7,93.685 C1.091,92.167 -0.485,89.002 1.591,85.699 Z"></path>
                            <path d="M130.137,0.962 C133.053,0.933 135.962,1.343 138.733,2.192 C141.504,3.041 144.138,4.329 146.501,6.053 C147.816,7.012 148.799,8.324 149.233,9.772 C149.666,11.22 149.55,12.806 148.668,14.314 C147.909,15.612 146.506,16.637 144.961,17.096 C143.417,17.555 141.731,17.447 140.406,16.481 C138.835,15.335 137.244,14.465 135.557,13.886 C133.87,13.307 132.088,13.019 130.136,13.039 C126.249,13.078 124.304,10.079 124.304,7.06 C124.304,4.04 126.248,1.001 130.137,0.962 Z"></path>
                            <path d="M215.405,53.195 C216.052,55.438 216.699,57.682 217.345,59.925 C217.992,62.168 218.639,64.412 219.285,66.655 C220.363,70.396 217.99,73.065 215.078,73.865 C212.166,74.666 208.716,73.598 207.64,69.865 C206.993,67.622 206.346,65.378 205.7,63.135 C205.053,60.892 204.406,58.648 203.76,56.405 C202.682,52.664 205.055,49.995 207.967,49.195 C210.879,48.394 214.329,49.462 215.405,53.195 Z"></path>
                            <path d="M178.49,153.034 L189.602,147.723 L200.714,142.412 C204.203,140.745 207.481,142.513 209.009,145.118 C210.538,147.723 210.317,151.163 206.809,152.84 L195.697,158.151 L184.585,163.462 C181.096,165.129 177.818,163.361 176.29,160.756 C174.761,158.151 174.982,154.711 178.49,153.034 Z"></path>
                        </g>
                        <g transform="translate(0.000000, 106.000000)">
                            <path d="M186.537,101.215 C185.391,102.201 183.735,102.712 182.129,102.641 C180.523,102.571 178.967,101.92 178.018,100.582 C176.445,98.363 174.871,96.143 173.298,93.924 C171.725,91.705 170.151,89.485 168.578,87.266 C167.636,85.937 167.135,84.375 167.199,82.861 C167.263,81.347 167.892,79.882 169.21,78.748 C170.356,77.762 172.012,77.252 173.617,77.322 C175.223,77.392 176.779,78.043 177.728,79.381 C179.301,81.6 180.875,83.82 182.448,86.039 C184.021,88.258 185.595,90.478 187.168,92.697 C188.11,94.026 188.611,95.588 188.547,97.102 C188.483,98.616 187.855,100.081 186.537,101.215 Z"></path>
                            <path d="M325.389,64.652 C324.243,65.638 322.587,66.149 320.981,66.078 C319.375,66.008 317.819,65.357 316.87,64.019 C315.297,61.8 313.723,59.58 312.15,57.361 C310.577,55.142 309.003,52.922 307.43,50.703 C306.488,49.374 305.987,47.812 306.051,46.298 C306.115,44.784 306.744,43.319 308.062,42.185 C309.208,41.199 310.864,40.689 312.47,40.759 C314.076,40.829 315.632,41.48 316.581,42.818 C318.154,45.037 319.728,47.257 321.301,49.476 C322.874,51.695 324.448,53.915 326.021,56.134 C326.963,57.463 327.464,59.025 327.4,60.539 C327.336,62.053 326.707,63.518 325.389,64.652 Z"></path>
                            <path d="M121.903,112.02 C120.136,114.062 118.369,116.105 116.601,118.147 C114.834,120.189 113.067,122.232 111.299,124.274 C110.232,125.507 108.647,126.061 107.054,126.033 C105.46,126.006 103.859,125.397 102.759,124.304 C101.536,123.089 100.993,121.572 101.023,120.05 C101.054,118.528 101.657,117 102.728,115.763 C104.495,113.721 106.262,111.678 108.03,109.636 C109.798,107.594 111.564,105.551 113.332,103.509 C114.399,102.276 115.984,101.722 117.577,101.75 C119.17,101.777 120.772,102.386 121.872,103.479 C123.095,104.694 123.638,106.211 123.608,107.733 C123.578,109.255 122.974,110.783 121.903,112.02 Z"></path>
                            <path d="M174.877,192.486 C173.155,192.041 171.953,191.012 171.24,189.689 C170.527,188.366 170.305,186.749 170.541,185.129 C170.866,182.905 171.19,180.681 171.515,178.457 C171.84,176.233 172.164,174.009 172.489,171.785 C172.725,170.169 173.835,168.897 175.251,168.123 C176.667,167.349 178.388,167.073 179.846,167.45 C181.568,167.895 182.77,168.924 183.483,170.247 C184.196,171.57 184.418,173.187 184.182,174.807 C183.857,177.031 183.533,179.255 183.208,181.479 C182.883,183.703 182.559,185.927 182.234,188.151 C181.998,189.767 180.888,191.039 179.472,191.813 C178.056,192.587 176.335,192.862 174.877,192.486 Z"></path>
                            <path d="M19.998,20.555 C18.65,21.715 17.119,22.115 15.626,21.945 C14.133,21.775 12.678,21.035 11.483,19.916 C9.842,18.38 8.202,16.844 6.561,15.308 C4.92,13.772 3.28,12.236 1.639,10.7 C0.447,9.584 0.036,7.946 0.209,6.342 C0.382,4.738 1.138,3.167 2.279,2.185 C3.627,1.025 5.158,0.625 6.651,0.795 C8.144,0.965 9.599,1.705 10.794,2.824 C12.435,4.36 14.075,5.896 15.716,7.432 C17.357,8.968 18.997,10.504 20.638,12.04 C21.83,13.156 22.241,14.794 22.068,16.398 C21.895,18.002 21.14,19.573 19.998,20.555 Z"></path>
                            <path d="M255.2,138.222 C252.704,140.579 250.472,143.067 248.47,145.728 C246.467,148.389 244.694,151.223 243.115,154.27 C241.329,157.719 237.817,157.939 235.199,156.434 C232.581,154.929 230.856,151.699 232.644,148.248 C234.437,144.786 236.516,141.49 238.856,138.391 C241.196,135.292 243.795,132.388 246.63,129.712 C249.448,127.05 253.009,127.839 255.157,129.962 C257.302,132.085 258.036,135.544 255.2,138.222 Z"></path>
                            <path d="M115.406,191.11 C112.576,190.409 109.862,189.283 107.391,187.768 C104.92,186.252 102.693,184.347 100.836,182.086 C99.802,180.828 99.179,179.313 99.122,177.802 C99.065,176.291 99.574,174.785 100.806,173.545 C101.866,172.478 103.481,171.837 105.091,171.779 C106.701,171.721 108.306,172.247 109.347,173.514 C110.581,175.016 111.904,176.257 113.392,177.24 C114.88,178.223 116.533,178.947 118.428,179.416 C122.201,180.35 123.333,183.741 122.579,186.664 C121.824,189.589 119.182,192.045 115.406,191.11 Z"></path>
                            <path d="M40.312,119.941 C40.247,117.607 40.182,115.273 40.117,112.94 C40.052,110.606 39.987,108.272 39.922,105.939 C39.814,102.047 42.779,100.057 45.799,100.01 C48.819,99.963 51.892,101.861 52,105.744 C52.065,108.078 52.13,110.412 52.195,112.745 C52.26,115.079 52.325,117.413 52.39,119.746 C52.498,123.638 49.533,125.628 46.513,125.675 C43.493,125.722 40.42,123.825 40.312,119.941 Z"></path>
                            <path d="M97.468,46.308 L85.381,48.67 L73.294,51.032 C69.499,51.774 66.768,49.241 65.939,46.337 C65.11,43.433 66.185,40.157 70.001,39.411 L82.088,37.049 L94.175,34.687 C97.97,33.945 100.701,36.478 101.53,39.382 C102.359,42.287 101.284,45.563 97.468,46.308 Z"></path>
                        </g>
                    </g>
                    <g transform="translate(674.000000, 153.000000)" fill="#A5AF00" id="Path">
                        <g>
                            <path d="M88.314,126.777 C88.76,125.517 89.806,124.398 91.069,123.747 C92.332,123.096 93.812,122.912 95.127,123.521 C97.309,124.533 99.491,125.545 101.673,126.557 C103.855,127.569 106.037,128.581 108.219,129.593 C109.525,130.199 110.596,131.178 111.211,132.368 C111.827,133.558 111.987,134.958 111.474,136.407 C111.028,137.667 109.982,138.786 108.719,139.437 C107.456,140.088 105.976,140.272 104.661,139.663 C102.479,138.651 100.297,137.639 98.115,136.627 C95.933,135.615 93.751,134.603 91.569,133.591 C90.263,132.985 89.192,132.006 88.576,130.817 C87.961,129.626 87.8,128.226 88.314,126.777 Z"></path>
                            <path d="M95.526,85.05 C94.378,82.957 93.229,80.863 92.081,78.77 C90.933,76.677 89.784,74.583 88.636,72.49 C87.943,71.226 87.972,69.742 88.485,68.43 C88.998,67.118 89.996,65.978 91.24,65.403 C92.624,64.764 94.047,64.781 95.299,65.275 C96.551,65.769 97.631,66.74 98.327,68.008 C99.475,70.101 100.624,72.195 101.772,74.288 C102.92,76.381 104.069,78.475 105.217,80.568 C105.91,81.832 105.881,83.316 105.368,84.628 C104.855,85.94 103.857,87.08 102.613,87.655 C101.229,88.294 99.805,88.277 98.554,87.783 C97.302,87.289 96.222,86.318 95.526,85.05 Z"></path>
                            <path d="M1.153,91.125 C2.052,89.835 3.275,89.156 4.591,88.973 C5.907,88.79 7.315,89.103 8.585,89.798 C10.328,90.752 12.071,91.706 13.814,92.66 C15.557,93.614 17.3,94.568 19.043,95.522 C20.309,96.215 21.022,97.527 21.227,98.939 C21.432,100.351 21.131,101.862 20.37,102.954 C19.471,104.244 18.248,104.923 16.932,105.106 C15.616,105.289 14.208,104.976 12.938,104.281 C11.195,103.327 9.452,102.373 7.709,101.419 C5.966,100.465 4.223,99.511 2.48,98.557 C1.214,97.864 0.501,96.552 0.296,95.14 C0.091,93.728 0.392,92.217 1.153,91.125 Z"></path>
                            <path d="M22.588,172.676 C21.403,169.882 20.029,167.266 18.44,164.787 C16.852,162.308 15.049,159.965 13.01,157.719 C10.702,155.176 11.601,152.198 13.654,150.492 C15.707,148.786 18.915,148.351 21.225,150.895 C23.542,153.447 25.633,156.185 27.481,159.078 C29.329,161.971 30.934,165.02 32.28,168.193 C33.618,171.348 31.868,174.056 29.447,175.182 C27.026,176.308 23.934,175.851 22.588,172.676 Z"></path>
                            <path d="M26.106,36.607 C27.559,34.477 29.327,32.575 31.344,30.994 C33.361,29.413 35.626,28.154 38.071,27.311 C39.432,26.842 40.88,26.792 42.149,27.21 C43.419,27.628 44.51,28.514 45.158,29.916 C45.716,31.123 45.75,32.659 45.302,34.011 C44.854,35.363 43.924,36.531 42.553,37.003 C40.928,37.563 39.492,38.277 38.219,39.208 C36.946,40.139 35.837,41.286 34.865,42.711 C32.929,45.55 29.77,45.444 27.58,43.919 C25.39,42.394 24.169,39.448 26.106,36.607 Z"></path>
                            <path d="M107.093,1.165 C109.047,1.83 111.001,2.495 112.955,3.16 C114.909,3.825 116.863,4.49 118.817,5.155 C122.075,6.264 122.812,9.334 121.92,11.851 C121.029,14.368 118.51,16.331 115.259,15.224 C113.305,14.559 111.351,13.894 109.397,13.229 C107.443,12.564 105.489,11.899 103.535,11.234 C100.277,10.125 99.54,7.055 100.432,4.538 C101.324,2.021 103.841,0.059 107.093,1.165 Z"></path>
                            <path d="M160.847,78.407 L162.612,67.663 L164.377,56.919 C164.931,53.546 167.871,52.062 170.533,52.27 C173.195,52.478 175.579,54.377 175.022,57.769 L173.257,68.513 L171.492,79.257 C170.938,82.63 167.998,84.114 165.336,83.906 C162.673,83.699 160.289,81.799 160.847,78.407 Z"></path>
                        </g>
                        <g transform="translate(11.000000, 15.000000)">
                            <path d="M165.41,124.851 C165.546,126.181 165.079,127.639 164.217,128.769 C163.354,129.898 162.095,130.698 160.646,130.71 C158.241,130.729 155.836,130.749 153.431,130.768 C151.026,130.787 148.621,130.807 146.216,130.826 C144.776,130.838 143.39,130.411 142.324,129.599 C141.258,128.787 140.514,127.59 140.358,126.061 C140.222,124.731 140.689,123.273 141.551,122.143 C142.414,121.014 143.673,120.214 145.122,120.202 C147.527,120.183 149.932,120.163 152.337,120.144 C154.742,120.125 157.147,120.105 159.552,120.086 C160.992,120.074 162.378,120.501 163.444,121.313 C164.509,122.125 165.254,123.321 165.41,124.851 Z"></path>
                            <path d="M209.079,5.658 C209.215,6.988 208.748,8.446 207.886,9.576 C207.023,10.705 205.764,11.505 204.315,11.517 C201.91,11.536 199.505,11.556 197.1,11.575 C194.695,11.594 192.29,11.614 189.885,11.633 C188.445,11.645 187.059,11.218 185.993,10.406 C184.927,9.594 184.183,8.397 184.027,6.868 C183.891,5.538 184.358,4.08 185.22,2.95 C186.083,1.821 187.342,1.021 188.791,1.009 C191.196,0.99 193.601,0.97 196.006,0.951 C198.411,0.932 200.816,0.912 203.221,0.893 C204.661,0.881 206.047,1.308 207.113,2.12 C208.178,2.932 208.922,4.129 209.079,5.658 Z"></path>
                            <path d="M140.576,177.192 C141.164,179.506 141.752,181.82 142.34,184.134 C142.928,186.448 143.516,188.762 144.104,191.076 C144.459,192.473 144.06,193.903 143.234,195.045 C142.409,196.187 141.157,197.041 139.809,197.286 C138.309,197.559 136.935,197.186 135.847,196.395 C134.758,195.604 133.956,194.393 133.599,192.991 C133.011,190.677 132.423,188.363 131.835,186.049 C131.247,183.735 130.659,181.421 130.071,179.107 C129.716,177.71 130.116,176.28 130.941,175.139 C131.766,173.997 133.018,173.143 134.366,172.898 C135.866,172.625 137.24,172.998 138.328,173.789 C139.417,174.579 140.219,175.79 140.576,177.192 Z"></path>
                            <path d="M225.715,179.444 C224.522,180.468 223.168,180.82 221.848,180.668 C220.528,180.516 219.243,179.861 218.187,178.87 C216.738,177.51 215.289,176.151 213.84,174.791 C212.391,173.431 210.942,172.072 209.493,170.712 C208.44,169.724 208.079,168.276 208.233,166.857 C208.387,165.438 209.057,164.051 210.067,163.184 C211.26,162.16 212.614,161.808 213.934,161.96 C215.254,162.112 216.539,162.767 217.595,163.758 C219.044,165.118 220.493,166.477 221.942,167.837 C223.391,169.197 224.84,170.556 226.289,171.916 C227.342,172.904 227.703,174.352 227.549,175.771 C227.395,177.189 226.725,178.577 225.715,179.444 Z"></path>
                            <path d="M22.724,204.869 C22.884,206.433 22.4,207.746 21.522,208.743 C20.644,209.74 19.372,210.421 17.956,210.722 C16.013,211.136 14.069,211.549 12.126,211.963 C10.183,212.377 8.239,212.79 6.296,213.204 C4.884,213.505 3.488,212.975 2.412,212.038 C1.336,211.101 0.578,209.76 0.443,208.435 C0.283,206.871 0.767,205.558 1.645,204.561 C2.523,203.564 3.795,202.883 5.211,202.582 C7.154,202.168 9.098,201.755 11.041,201.341 C12.984,200.927 14.928,200.514 16.871,200.1 C18.283,199.8 19.679,200.33 20.755,201.266 C21.831,202.202 22.589,203.545 22.724,204.869 Z"></path>
                            <path d="M226.96,93.756 C227.408,96.757 228.084,99.634 229.002,102.432 C229.92,105.23 231.078,107.948 232.491,110.634 C234.09,113.673 232.474,116.332 230.059,117.47 C227.644,118.608 224.429,118.226 222.83,115.185 C221.225,112.134 219.886,108.96 218.821,105.697 C217.756,102.434 216.964,99.08 216.455,95.671 C215.949,92.281 218.321,90.097 220.946,89.613 C223.571,89.128 226.451,90.345 226.96,93.756 Z"></path>
                            <path d="M194.656,221.883 C192.717,223.582 190.528,224.981 188.18,226.007 C185.832,227.033 183.324,227.685 180.746,227.89 C179.311,228.004 177.897,227.69 176.772,226.968 C175.647,226.246 174.812,225.115 174.536,223.595 C174.298,222.287 174.649,220.791 175.421,219.595 C176.193,218.398 177.386,217.5 178.831,217.385 C180.545,217.249 182.113,216.917 183.578,216.334 C185.043,215.751 186.404,214.918 187.702,213.781 C190.287,211.517 193.319,212.409 195.057,214.434 C196.797,216.459 197.243,219.617 194.656,221.883 Z"></path>
                            <path d="M105.078,240.374 C103.352,239.241 101.627,238.109 99.901,236.976 C98.175,235.843 96.45,234.711 94.724,233.578 C91.847,231.689 91.902,228.532 93.395,226.319 C94.887,224.105 97.817,222.835 100.688,224.72 C102.414,225.853 104.139,226.985 105.865,228.118 C107.591,229.251 109.316,230.383 111.042,231.516 C113.919,233.405 113.864,236.562 112.371,238.775 C110.878,240.989 107.949,242.259 105.078,240.374 Z"></path>
                            <path d="M80.563,161.698 L76.166,171.659 L71.769,181.62 C70.388,184.747 67.171,185.448 64.646,184.581 C62.121,183.714 60.288,181.278 61.676,178.134 L66.073,168.173 L70.47,158.212 C71.851,155.085 75.068,154.384 77.593,155.251 C80.118,156.118 81.951,158.553 80.563,161.698 Z"></path>
                        </g>
                    </g>
                </g>
                <path d="M626.876,548.424 L645.037,548.424 L663.199,548.424 L657.303,560.306 L651.407,572.188 C643.378,576.002 635.432,580.008 627.53,584.123 C619.628,588.238 611.77,592.462 603.916,596.712 L615.396,572.568 L626.876,548.424 Z" id="Path" fill="#301D21"></path>
            </g>
        </g>
    </g>
</svg>
